<svg width="360" height="291" viewBox="0 0 360 291" fill="none" xmlns="http://www.w3.org/2000/svg">
<path fill-rule="evenodd" clip-rule="evenodd" d="M54.9017 1.03524C54.9017 1.55287 54.9017 2.07049 54.9017 2.58812C57.6643 2.76066 57.6643 2.93321 54.9017 3.10575C54.0381 3.10575 53.1751 3.10575 52.3115 3.10575C52.5089 2.36496 53.0269 1.93361 53.8656 1.81168C50.2078 1.64987 46.5816 1.90868 42.987 2.58812C42.5736 2.35162 42.4011 2.00654 42.469 1.55287C46.5982 1.12688 50.7424 0.954337 54.9017 1.03524Z" fill="#52504D"/>
<path fill-rule="evenodd" clip-rule="evenodd" d="M39.8788 2.0705C40.6139 1.57815 41.477 1.40561 42.469 1.55287C42.4011 2.00654 42.5736 2.35163 42.987 2.58812C46.5816 1.90869 50.2078 1.64987 53.8656 1.81168C53.0269 1.93361 52.5089 2.36496 52.3115 3.10575C48.6107 2.93793 44.9845 3.28301 41.4329 4.14101C41.3449 3.45667 41.5174 2.85277 41.951 2.32931C41.2811 2.07567 40.5901 1.98939 39.8788 2.0705Z" fill="#75736F"/>
<path fill-rule="evenodd" clip-rule="evenodd" d="M56.4558 0.517578C58.0383 1.14571 59.4194 2.09469 60.6 3.36453C60.3633 3.57881 60.1902 3.83762 60.082 4.14098C61.7593 4.89782 63.4859 5.50172 65.2622 5.95267C64.9742 6.15072 64.8017 6.40953 64.7442 6.72912C61.3874 5.61228 58.1062 4.40449 54.9017 3.10572C57.6643 2.93318 57.6643 2.76063 54.9017 2.58809C54.9017 2.07046 54.9017 1.55283 54.9017 1.03521C55.5704 1.15804 56.0885 0.985498 56.4558 0.517578Z" fill="#63615B"/>
<path fill-rule="evenodd" clip-rule="evenodd" d="M217.045 0C218.081 0 219.117 0 220.153 0C221.164 1.89063 222.114 3.61606 223.002 5.17628C223.49 6.61073 223.576 7.99109 223.261 9.31731C221.396 6.07338 219.324 2.96763 217.045 0Z" fill="#565551"/>
<path fill-rule="evenodd" clip-rule="evenodd" d="M39.8788 2.07049C40.5901 1.98939 41.2811 2.07566 41.9509 2.3293C41.5173 2.85277 41.3448 3.45666 41.4329 4.141C40.2849 4.50469 39.3354 5.19486 38.5837 6.21151C36.9722 8.3971 36.4541 10.8127 37.0297 13.4583C38.6014 15.0185 39.2059 16.9165 38.8428 19.1522C38.4247 17.7048 37.9067 16.2382 37.2887 14.7524C35.5212 14.0867 33.7946 13.8278 32.1084 13.9759C32.7715 13.2351 33.635 12.89 34.6985 12.9407C35.1844 9.81307 36.566 7.13869 38.8428 4.91744C32.4969 6.84142 27.1441 10.3786 22.7839 15.5288C23.2029 16.342 23.376 17.2047 23.3019 18.117C22.5585 17.4493 22.0405 16.5866 21.7478 15.5288C20.4284 15.3885 19.3923 14.8709 18.6396 13.9759C20.1005 14.1066 21.4815 13.8478 22.7839 13.1995C24.6146 11.1968 26.6002 9.38515 28.7412 7.7644C29.0976 7.33389 29.0111 6.98879 28.4822 6.72914C26.2774 7.83537 24.0323 8.78433 21.7478 9.5761C17.373 10.5896 13.0563 11.7112 8.79708 12.9407C8.77688 12.38 8.60386 11.8624 8.27905 11.3878C8.84992 11.038 9.36795 10.693 9.83314 10.3525C20.0036 8.11468 30.0192 5.35399 39.8788 2.07049Z" fill="#5C5751"/>
<path fill-rule="evenodd" clip-rule="evenodd" d="M205.13 0C206.684 0 208.238 0 209.792 0C214.97 6.03632 220.496 11.7302 226.369 17.0817C225.258 17.5634 224.135 17.3909 223.002 16.5641C222.743 17.168 222.312 17.5994 221.707 17.8582C222.628 18.9721 223.405 18.8858 224.038 17.5994C224.517 17.8822 224.949 18.2273 225.333 18.6346C224.053 19.3573 222.672 19.7887 221.189 19.9287C223.057 20.8429 224.87 21.4468 226.628 21.7404C226.985 22.1709 226.898 22.516 226.369 22.7756C225.795 22.2116 225.277 22.2116 224.815 22.7756C225.419 23.3365 226.109 23.7679 226.887 24.0697C226.336 24.8516 225.646 24.9379 224.815 24.3285C217.957 19.7539 210.36 18.0284 202.022 19.1522C202.95 18.7334 203.986 18.4746 205.13 18.3758C205.447 17.7012 205.62 17.0973 205.648 16.5641C206.843 17.3359 208.138 17.8535 209.533 18.117C210.98 18.0336 212.447 17.8611 213.937 17.5994C213.643 17.1898 213.212 17.1898 212.641 17.5994C212.382 17.4268 212.123 17.2543 211.864 17.0817C212.21 16.9092 212.555 16.7366 212.9 16.5641C211.577 15.8164 210.196 15.2125 208.756 14.7524C209.426 14.4988 210.117 14.4125 210.828 14.4936C212.822 14.5912 214.721 14.5912 216.527 14.4936C212.139 10.1109 208.34 5.27968 205.13 0Z" fill="#4C4C48"/>
<path fill-rule="evenodd" clip-rule="evenodd" d="M220.153 0C221.189 0 222.225 0 223.261 0C224.956 3.41374 226.856 6.69205 228.959 9.83494C229.09 11.3205 228.572 12.5283 227.405 13.4583C226.352 12.244 225.403 10.6911 224.556 8.79968C224.34 9.44982 223.909 9.79487 223.261 9.83494C223.261 9.66241 223.261 9.48983 223.261 9.31731C223.576 7.99109 223.49 6.61073 223.002 5.17628C222.114 3.61606 221.164 1.89063 220.153 0Z" fill="#41413E"/>
<path fill-rule="evenodd" clip-rule="evenodd" d="M282.834 0C284.388 0 285.943 0 287.497 0C287.497 2.07051 287.497 4.14103 287.497 6.21154C287.177 6.15424 286.918 5.98171 286.72 5.69391C286.348 7.52885 286.435 9.34055 286.979 11.129C286.726 11.9489 286.208 12.5528 285.425 12.9407C285.604 13.5596 285.863 13.5596 286.202 12.9407C286.596 14.2622 287.027 15.5562 287.497 16.8229C287.078 16.9821 286.733 17.241 286.461 17.5994C287.151 19.1522 287.842 20.7051 288.533 22.258C288.003 22.7001 287.572 23.2177 287.238 23.8109C285.411 21.7318 285.152 21.8181 286.461 24.0697C283.706 25.9344 282.756 25.3305 283.611 22.258C284.197 22.8294 284.629 22.6568 284.907 21.7404C283.712 19.8028 283.712 17.8186 284.907 15.7877C284.147 15.2196 283.715 14.4431 283.611 13.4583C283.18 0.349616 282.921 0.349616 282.834 13.4583C282.199 9.04887 282.199 4.56277 282.834 0Z" fill="#5E5D59"/>
<path fill-rule="evenodd" clip-rule="evenodd" d="M56.4557 0.517628C56.4557 0.345086 56.4557 0.172543 56.4557 0C57.4918 0 58.5279 0 59.5639 0C60.141 0.717087 60.659 1.49353 61.118 2.32933C70.4519 6.6478 79.7764 10.9613 89.0916 15.27C92.537 16.7541 96.1632 17.3579 99.9702 17.0817C101.074 17.503 102.283 17.7618 103.596 17.8582C102.184 17.9522 100.803 18.211 99.4521 18.6346C99.8386 19.2745 100.011 19.9647 99.9702 20.7051C99.4521 20.7051 98.9341 20.7051 98.4161 20.7051C98.571 19.616 98.3985 18.5808 97.8981 17.5994C96.7853 18.2508 95.6628 18.2508 94.5309 17.5994C93.973 18.0805 93.3684 18.4256 92.7178 18.6346C83.3969 14.6728 74.0724 10.7043 64.7442 6.72917C64.8017 6.40958 64.9742 6.15077 65.2622 5.95272C63.4859 5.50177 61.7593 4.89787 60.082 4.14103C60.1902 3.83767 60.3632 3.57886 60.6 3.36458C59.4194 2.09474 58.0383 1.14576 56.4557 0.517628Z" fill="#53504C"/>
<path fill-rule="evenodd" clip-rule="evenodd" d="M1.0267 15.0112C0.854192 14.6661 0.681171 14.321 0.508667 13.9759C1.58099 13.9331 1.75349 13.4155 1.0267 12.423C1.14014 11.6787 1.39916 10.9885 1.80374 10.3525C1.97624 10.6976 2.14926 11.0427 2.32177 11.3878C3.36301 10.6898 4.39906 9.9996 5.42994 9.31726C6.193 9.52592 6.88353 9.87097 7.50206 10.3525C7.63364 11.7475 7.72015 13.0416 7.76107 14.2347C6.76594 14.4212 5.90238 14.8526 5.17093 15.5288C3.80696 15.5613 2.42589 15.3887 1.0267 15.0112Z" fill="#8A684A"/>
<path fill-rule="evenodd" clip-rule="evenodd" d="M9.83318 10.3526C9.36799 10.693 8.84996 11.0381 8.27909 11.3878C8.60389 11.8624 8.77691 12.38 8.79712 12.9407C8.85255 14.1847 8.33452 15.1336 7.24303 15.7877C4.77514 17.7272 2.70303 17.4684 1.02669 15.0112C2.42588 15.3888 3.80695 15.5613 5.17092 15.5288C5.90237 14.8526 6.76593 14.4213 7.76106 14.2348C7.72014 13.0416 7.63362 11.7476 7.50205 10.3526C6.88352 9.87101 6.19299 9.52596 5.42993 9.3173C4.39905 9.99964 3.363 10.6898 2.32176 11.3878C2.14925 11.0427 1.97623 10.6977 1.80373 10.3526C1.39915 10.9886 1.14013 11.6787 1.02669 12.4231C1.75348 13.4155 1.58098 13.9331 0.508656 13.976C-0.0679098 13.2273 -0.154421 12.3645 0.249642 11.3878C1.40381 8.66209 3.38993 7.54054 6.20697 8.02323C7.26945 9.06894 8.47801 9.84539 9.83318 10.3526Z" fill="#7B6350"/>
<path fill-rule="evenodd" clip-rule="evenodd" d="M210.828 14.4936C210.117 14.4125 209.426 14.4988 208.756 14.7524C210.196 15.2125 211.577 15.8164 212.9 16.5641C212.555 16.7366 212.21 16.9092 211.864 17.0817C212.123 17.2542 212.382 17.4268 212.641 17.5993C213.212 17.1898 213.643 17.1898 213.937 17.5993C212.447 17.8611 210.98 18.0336 209.533 18.117C208.138 17.8535 206.843 17.3359 205.648 16.5641C205.62 17.0973 205.447 17.7012 205.13 18.3758C203.986 18.4746 202.95 18.7334 202.022 19.1522C197.597 20.0813 193.108 20.4263 188.553 20.1875C187.246 19.7974 185.865 19.4523 184.409 19.1522C183.147 19.8722 182.802 19.6134 183.373 18.3758C182.247 18.2822 181.297 18.7135 180.524 19.6699C180.135 19.3459 179.703 19.0871 179.229 18.8934C179.811 18.7644 180.329 18.5056 180.783 18.117C179.8 17.6172 178.764 17.4446 177.674 17.5993C181.292 16.3325 185.091 15.556 189.071 15.27C195.225 15.1435 201.355 14.7122 207.461 13.976C208.684 13.978 209.806 14.1505 210.828 14.4936Z" fill="#595853"/>
<path fill-rule="evenodd" clip-rule="evenodd" d="M18.6396 13.976C19.3923 14.8709 20.4284 15.3886 21.7478 15.5288C22.0405 16.5866 22.5585 17.4493 23.3019 18.117C21.5344 22.2216 19.0302 22.7392 15.7905 19.6699C14.8269 16.7647 15.7765 14.8667 18.6396 13.976Z" fill="#7E6046"/>
<path fill-rule="evenodd" clip-rule="evenodd" d="M32.1084 13.9759C33.7946 13.8278 35.5212 14.0866 37.2887 14.7524C37.9067 16.2382 38.4247 17.7048 38.8428 19.1522C38.26 19.9953 37.569 20.7717 36.7707 21.4815C33.0455 22.6462 30.9734 21.3522 30.5543 17.5993C30.3844 16.0462 30.9024 14.8383 32.1084 13.9759Z" fill="#846347"/>
<path fill-rule="evenodd" clip-rule="evenodd" d="M114.475 15.0112C114.179 15.7738 114.179 16.6365 114.475 17.5993C115.166 17.5993 115.857 17.5993 116.547 17.5993C115.512 17.9345 114.476 18.3658 113.439 18.8934C108.904 19.2441 104.414 19.8479 99.9702 20.7051C100.011 19.9646 99.8386 19.2745 99.4521 18.6346C100.803 18.2109 102.184 17.9521 103.596 17.8581C102.283 17.7617 101.074 17.5029 99.9702 17.0817C104.856 16.7281 109.691 16.0379 114.475 15.0112Z" fill="#615E59"/>
<path fill-rule="evenodd" clip-rule="evenodd" d="M98.4161 20.7051C94.4682 21.5573 90.842 23.1102 87.5375 25.3638C87.2003 25.0581 86.8547 24.713 86.5014 24.3285C86.187 24.3925 86.0145 24.565 85.9834 24.8462C84.1869 25.1572 82.4603 25.6748 80.8031 26.399C79.1718 26.3551 77.7903 26.8728 76.6589 27.9519C75.0965 28.5017 73.5424 29.1055 71.9966 29.7636C70.6363 30.2787 69.2547 30.4512 67.8524 30.2813C71.6402 29.2819 75.0939 27.6427 78.213 25.3638C76.0388 24.1108 73.7942 24.0245 71.4786 25.105C68.702 26.8384 66.1118 28.8226 63.7082 31.0577C64.5085 31.5504 65.3721 31.723 66.2983 31.5753C65.7451 32.059 65.0545 32.2316 64.2262 32.093C63.4606 32.2286 62.77 32.056 62.1541 31.5753C65.0338 28.4109 68.315 25.7365 71.9966 23.5521C75.8404 23.4161 79.6396 23.5886 83.3933 24.0697C87.3811 22.7988 91.3523 21.4184 95.3079 19.9287C94.3677 19.537 93.5047 19.1056 92.7178 18.6346C93.3684 18.4256 93.973 18.0805 94.5309 17.5994C95.6628 18.2508 96.7853 18.2508 97.8981 17.5994C98.3985 18.5808 98.571 19.616 98.4161 20.7051Z" fill="#5A5950"/>
<path fill-rule="evenodd" clip-rule="evenodd" d="M177.675 17.5993C178.764 17.4446 179.801 17.6171 180.783 18.1169C180.329 18.5056 179.811 18.7644 179.229 18.8934C179.703 19.0871 180.135 19.3459 180.524 19.6698C181.297 18.7134 182.247 18.2821 183.373 18.3757C182.802 19.6133 183.147 19.8722 184.409 19.1522C185.865 19.4522 187.246 19.7973 188.553 20.1874C182.038 20.5583 175.65 21.5935 169.386 23.2932C168.62 23.4288 167.93 23.2563 167.314 22.7756C168.036 22.1612 167.95 21.8162 167.055 21.7403C166.603 21.8622 166.171 22.0348 165.76 22.258C165.587 21.5678 165.414 20.8776 165.242 20.1874C164.837 20.8235 164.578 21.5136 164.465 22.258C163.601 21.9129 162.738 21.5678 161.875 21.2227C161.702 21.5678 161.529 21.9129 161.357 22.258C160.562 22.0283 159.785 21.8558 159.026 21.7403C158.304 22.4459 157.441 22.8773 156.435 23.0344C156.852 23.6104 157.198 24.2143 157.471 24.8461C155.107 25.8575 152.862 27.1516 150.737 28.7283C145.503 33.1846 145.33 37.7569 150.219 42.4455C149.785 42.6223 149.612 42.9674 149.701 43.4807C148.136 41.997 146.841 40.2716 145.816 38.3044C145.2 38.8549 144.941 39.545 145.039 40.3749C144.57 40.0079 144.398 39.4903 144.521 38.8221C144.496 33.2627 146.741 28.8629 151.255 25.6225C141.04 27.5334 132.406 32.2783 125.354 39.8573C124.836 39.6848 124.49 39.3397 124.318 38.8221C124.318 38.6495 124.318 38.477 124.318 38.3044C124.599 38.2734 124.771 38.1009 124.836 37.7868C122.34 37.4416 119.923 37.0965 117.583 36.7516C120.438 36.9043 123.201 36.473 125.872 35.4575C130.817 31.6912 136.17 28.5854 141.931 26.1402C145.236 24.6241 148.69 23.5888 152.291 23.0344C150.454 22.4269 148.555 22.0818 146.593 21.9991C145.824 21.1846 144.96 20.4944 144.003 19.9286C135.08 17.0866 125.928 16.3102 116.547 17.5993C115.857 17.5993 115.166 17.5993 114.475 17.5993C114.179 16.6365 114.179 15.7738 114.475 15.0112C126.673 12.2983 138.415 13.5923 149.701 18.8934C151.561 19.4895 153.461 19.9208 155.399 20.1874C162.866 19.5624 170.291 18.6996 177.675 17.5993Z" fill="#514E4A"/>
<path fill-rule="evenodd" clip-rule="evenodd" d="M169.386 23.2933C168.651 23.7856 167.788 23.9582 166.796 23.8109C163.94 23.1299 161.004 23.1299 157.989 23.8109C158.226 24.2237 158.572 24.3963 159.025 24.3285C158.658 24.7965 158.14 24.969 157.471 24.8462C157.198 24.2143 156.852 23.6104 156.435 23.0345C157.441 22.8773 158.304 22.446 159.025 21.7404C159.785 21.8558 160.562 22.0283 161.357 22.258C161.529 21.9129 161.702 21.5679 161.875 21.2228C162.738 21.5679 163.601 21.9129 164.465 22.258C164.578 21.5137 164.837 20.8235 165.242 20.1875C165.414 20.8777 165.587 21.5679 165.76 22.258C166.171 22.0348 166.603 21.8623 167.055 21.7404C167.95 21.8162 168.036 22.1613 167.314 22.7756C167.93 23.2564 168.62 23.4289 169.386 23.2933Z" fill="#666460"/>
<path fill-rule="evenodd" clip-rule="evenodd" d="M166.796 23.8109C164.157 23.6666 161.566 23.8392 159.025 24.3285C158.572 24.3963 158.226 24.2237 157.989 23.8109C161.004 23.1298 163.94 23.1298 166.796 23.8109Z" fill="#3F3B39"/>
<path fill-rule="evenodd" clip-rule="evenodd" d="M287.497 6.21151C286.58 16.4335 290.552 24.0254 299.411 28.9872C298.642 29.8468 298.296 30.7095 298.375 31.5753C296.635 30.447 294.736 29.7569 292.677 29.5048C292.588 31.0513 293.279 32.0866 294.749 32.6106C294.369 32.9144 293.851 32.9144 293.195 32.6106C292.216 32.0391 291.353 31.3489 290.605 30.54C291.07 30.1996 291.588 29.8545 292.159 29.5048C292.051 29.2015 291.878 28.9426 291.641 28.7283C292.245 28.4695 292.677 28.0382 292.936 27.4343C294.364 28.104 295.659 28.9667 296.821 30.0224C296.994 29.8499 297.167 29.6773 297.339 29.5048C295.41 27.6347 293.251 26.0819 290.864 24.8461C290.383 25.7959 289.779 25.9684 289.051 25.3638C288.469 26.1628 288.642 26.853 289.569 27.4343C289.332 27.8471 288.986 28.0197 288.533 27.9519C288.282 26.7251 287.678 26.38 286.72 26.9166C283.992 31.5693 281.316 36.2279 278.69 40.8926C277.386 39.9316 277.386 38.9826 278.69 38.0456C278.453 37.8314 278.28 37.5725 278.172 37.2692C280.709 36.2912 280.536 35.4285 277.654 34.6811C279.569 30.1544 281.21 25.4958 282.575 20.7051C282.834 18.2956 282.92 15.88 282.834 13.4583C282.921 0.34959 283.18 0.34959 283.611 13.4583C283.715 14.4431 284.147 15.2195 284.906 15.7876C283.712 17.8185 283.712 19.8028 284.906 21.7404C284.629 22.6568 284.197 22.8294 283.611 22.258C282.756 25.3305 283.706 25.9343 286.461 24.0697C285.152 21.8181 285.411 21.7318 287.238 23.8109C287.572 23.2177 288.003 22.7 288.533 22.258C287.842 20.7051 287.151 19.1522 286.461 17.5993C286.733 17.2409 287.078 16.9821 287.497 16.8229C287.027 15.5562 286.596 14.2621 286.202 12.9407C285.863 13.5596 285.604 13.5596 285.425 12.9407C286.208 12.5528 286.726 11.9489 286.979 11.129C286.435 9.34052 286.348 7.52883 286.72 5.69389C286.918 5.98169 287.177 6.15421 287.497 6.21151Z" fill="#504F4D"/>
<path fill-rule="evenodd" clip-rule="evenodd" d="M228.959 9.83494C229.884 12.25 230.92 14.6657 232.068 17.0817C231.614 17.014 231.268 17.1866 231.031 17.5994C231.451 18.4125 231.624 19.2752 231.55 20.1875C230.002 20.2277 229.657 19.6238 230.513 18.3758C230.446 17.8277 230.187 17.3964 229.736 17.0817C229.564 17.9445 229.391 18.8071 229.218 19.6699C228.248 18.6917 227.817 17.6564 227.923 16.5641C227.466 17.2162 226.948 17.8201 226.369 18.3758C227.65 20.9502 229.55 22.9345 232.068 24.3285C231.504 24.6417 230.9 24.4692 230.254 23.8109C229.995 24.4148 229.564 24.8462 228.959 25.105C230.065 25.9102 230.238 26.8593 229.477 27.9519C227.763 26.9259 226.209 25.7182 224.815 24.3285C225.646 24.9379 226.336 24.8516 226.887 24.0697C226.109 23.7679 225.419 23.3365 224.815 22.7756C225.277 22.2116 225.795 22.2116 226.369 22.7756C226.898 22.516 226.985 22.1709 226.628 21.7404C224.87 21.4468 223.057 20.8429 221.189 19.9287C222.672 19.7887 224.053 19.3573 225.333 18.6346C224.949 18.2273 224.517 17.8822 224.038 17.5994C223.405 18.8858 222.628 18.9721 221.707 17.8582C222.312 17.5994 222.743 17.168 223.002 16.5641C224.135 17.3909 225.258 17.5634 226.369 17.0817C226.651 17.0507 226.823 16.8782 226.887 16.5641C225.438 14.4324 224.229 12.1893 223.261 9.83494C223.909 9.79487 224.34 9.44982 224.556 8.79968C225.403 10.6911 226.352 12.244 227.405 13.4583C228.572 12.5283 229.09 11.3205 228.959 9.83494Z" fill="#575753"/>
<path fill-rule="evenodd" clip-rule="evenodd" d="M76.6589 27.9519C77.1127 27.8841 77.4582 28.0567 77.695 28.4695C76.2854 31.1187 74.0408 32.3265 70.9606 32.0929C69.4107 31.8519 67.8566 31.6793 66.2983 31.5753C65.3721 31.7229 64.5085 31.5504 63.7082 31.0577C66.1118 28.8225 68.702 26.8383 71.4786 25.1049C73.7942 24.0244 76.0388 24.1107 78.213 25.3638C75.0939 27.6427 71.6402 29.2818 67.8524 30.2812C69.2547 30.4512 70.6363 30.2786 71.9967 29.7636C73.5425 29.1055 75.0965 28.5016 76.6589 27.9519Z" fill="#93977B"/>
<path fill-rule="evenodd" clip-rule="evenodd" d="M290.605 30.54C289.93 29.6899 289.239 28.8273 288.533 27.9519C288.986 28.0197 289.332 27.8471 289.569 27.4343C288.642 26.853 288.469 26.1628 289.051 25.3638C289.779 25.9685 290.383 25.7959 290.864 24.8461C293.251 26.0819 295.41 27.6347 297.339 29.5048C297.167 29.6773 296.994 29.8499 296.821 30.0224C295.659 28.9667 294.364 28.104 292.936 27.4343C292.677 28.0382 292.245 28.4695 291.641 28.7283C291.878 28.9426 292.051 29.2015 292.159 29.5048C291.588 29.8545 291.07 30.1996 290.605 30.54Z" fill="#5E5C58"/>
<path fill-rule="evenodd" clip-rule="evenodd" d="M85.9834 24.8461C86.0145 24.565 86.187 24.3925 86.5015 24.3285C86.8547 24.7129 87.2003 25.058 87.5375 25.3637C86.4046 26.9301 85.3685 28.5692 84.4293 30.2812C85.397 33.0023 85.7425 35.8492 85.4654 38.8221C84.4972 37.7168 84.1517 36.3365 84.4293 34.6811C83.8207 34.5677 83.3026 34.7402 82.8752 35.1987C81.6651 37.6399 80.4566 40.0555 79.249 42.4455C79.0765 42.273 78.9035 42.1004 78.731 41.9278C79.7246 40.3313 80.4151 38.6059 80.8031 36.7516C82.1764 35.1349 82.781 33.2369 82.6162 31.0577C82.1847 31.5753 81.7527 32.0929 81.3212 32.6105C81.0067 32.5466 80.8342 32.374 80.8031 32.0929C82.7012 30.1093 84.5143 28.0387 86.2424 25.8814C86.6009 25.3965 86.5144 25.0514 85.9834 24.8461Z" fill="#636657"/>
<path fill-rule="evenodd" clip-rule="evenodd" d="M232.068 17.0817C235.757 20.7711 238.866 24.9121 241.392 29.5048C241.245 29.9133 240.986 30.2584 240.615 30.54C239.672 29.1124 238.463 28.5948 236.989 28.9872C236.761 28.1713 236.329 27.4811 235.694 26.9167C236.87 25.8622 236.611 24.9996 234.917 24.3285C233.906 24.5292 233.129 25.0468 232.586 25.8814C233.013 26.3399 233.531 26.5124 234.14 26.399C234.272 27.7015 234.704 28.9093 235.435 30.0224C236.27 29.4415 236.875 29.7003 237.248 30.7989C236.621 31.375 236.621 31.979 237.248 32.6106C237.011 33.0234 236.666 33.1959 236.212 33.1282C233.967 31.4028 231.722 29.6773 229.477 27.9519C230.238 26.8592 230.065 25.9102 228.959 25.105C229.564 24.8461 229.995 24.4148 230.254 23.8109C230.9 24.4691 231.504 24.6417 232.068 24.3285C229.55 22.9344 227.65 20.9502 226.369 18.3758C226.948 17.8201 227.466 17.2162 227.923 16.5641C227.817 17.6564 228.248 18.6916 229.218 19.6699C229.391 18.8071 229.564 17.9444 229.736 17.0817C230.187 17.3964 230.446 17.8277 230.513 18.3758C229.657 19.6238 230.002 20.2277 231.55 20.1875C231.624 19.2752 231.451 18.4125 231.031 17.5993C231.268 17.1865 231.614 17.014 232.068 17.0817Z" fill="#4B4A47"/>
<path fill-rule="evenodd" clip-rule="evenodd" d="M80.8031 26.399C76.834 32.8398 71.3082 34.7377 64.2262 32.0929C65.0545 32.2315 65.7451 32.059 66.2983 31.5753C67.8565 31.6793 69.4106 31.8518 70.9606 32.0929C74.0408 32.3265 76.2854 31.1187 77.6949 28.4695C77.4582 28.0567 77.1127 27.8841 76.6589 27.9519C77.7903 26.8727 79.1718 26.3551 80.8031 26.399Z" fill="#7B7F6C"/>
<path fill-rule="evenodd" clip-rule="evenodd" d="M80.8031 36.7516C80.5866 36.3781 80.2416 36.1193 79.7671 35.9751C80.8782 35.5905 80.9642 35.1591 80.0261 34.6811C79.3039 35.2574 78.6994 35.9475 78.213 36.7516C77.8985 36.6876 77.726 36.5151 77.6949 36.234C78.5481 34.6948 79.5842 33.3145 80.8031 32.0929C80.8342 32.3741 81.0067 32.5466 81.3211 32.6106C81.7527 32.0929 82.1847 31.5753 82.6162 31.0577C82.781 33.2369 82.1764 35.1349 80.8031 36.7516Z" fill="#717663"/>
<path fill-rule="evenodd" clip-rule="evenodd" d="M299.411 28.9872C307.188 32.8716 314.786 37.0989 322.205 41.6691C324.708 42.8763 327.298 43.8254 329.975 44.516C331.184 44.8611 332.393 45.2062 333.601 45.5513C333.083 45.5513 332.565 45.5513 332.047 45.5513C331.184 46.2414 330.321 46.9316 329.457 47.6218C323.019 44.8252 316.803 41.5469 310.808 37.7869C310.493 37.8508 310.321 38.0234 310.29 38.3045C309.24 38.2206 308.204 38.3068 307.182 38.5633C307.787 39.5317 307.528 40.3082 306.405 40.8926C305.163 39.1111 303.522 37.9033 301.483 37.2692C301.395 36.5849 301.568 35.981 302.001 35.4575C301.51 35.2076 300.992 35.1213 300.447 35.1987C300.447 35.8889 300.447 36.5791 300.447 37.2692C297.691 36.2375 295.273 34.6846 293.195 32.6106C293.851 32.9144 294.369 32.9144 294.749 32.6106C293.279 32.0866 292.588 31.0513 292.677 29.5048C294.736 29.7569 296.635 30.447 298.375 31.5753C298.297 30.7095 298.642 29.8468 299.411 28.9872Z" fill="#575451"/>
<path fill-rule="evenodd" clip-rule="evenodd" d="M80.8031 36.7516C80.4151 38.6059 79.7246 40.3313 78.731 41.9278C78.9035 42.1004 79.0765 42.2729 79.249 42.4455C80.4565 40.0555 81.6651 37.6399 82.8752 35.1987C83.3026 34.7402 83.8206 34.5677 84.4293 34.6811C84.1516 36.3365 84.4972 37.7168 85.4654 38.8221C84.0838 41.9278 81.8392 44.1709 78.731 45.5512C78.3098 44.9546 77.7918 44.9546 77.1769 45.5512C76.4745 42.9942 76.647 40.4923 77.6949 38.0456C77.6587 37.6498 77.4862 37.3909 77.1769 37.2692C77.0878 36.7559 77.2608 36.4108 77.6949 36.2339C77.726 36.5151 77.8985 36.6876 78.213 36.7516C78.6994 35.9475 79.3039 35.2573 80.0261 34.6811C80.9642 35.1591 80.8782 35.5905 79.767 35.9751C80.2416 36.1192 80.5866 36.378 80.8031 36.7516Z" fill="#8D937A"/>
<path fill-rule="evenodd" clip-rule="evenodd" d="M115.511 33.6458C116.029 33.8183 116.375 34.1634 116.547 34.6811C116.379 35.9566 116.293 37.3369 116.288 38.8221C114.788 39.9842 113.147 40.1567 111.367 39.3397C110.414 38.2904 110.155 37.0827 110.59 35.7163C112.086 34.5711 113.726 33.881 115.511 33.6458Z" fill="#8D6A4B"/>
<path fill-rule="evenodd" clip-rule="evenodd" d="M277.654 34.6811C280.536 35.4285 280.709 36.2912 278.172 37.2692C278.28 37.5726 278.453 37.8314 278.69 38.0457C277.386 38.9826 277.386 39.9316 278.69 40.8926C278.576 42.2215 278.23 43.4293 277.654 44.516C276.829 44.0771 276.224 43.3869 275.841 42.4455C275.668 42.7906 275.495 43.1357 275.323 43.4808C275.111 42.7557 274.852 42.0656 274.546 41.4103C275.442 39.1029 276.478 36.8598 277.654 34.6811Z" fill="#464443"/>
<path fill-rule="evenodd" clip-rule="evenodd" d="M115.511 33.6458C113.726 33.8809 112.086 34.5711 110.59 35.7163C110.155 37.0826 110.414 38.2904 111.367 39.3397C113.147 40.1567 114.788 39.9841 116.288 38.8221C116.293 37.3369 116.379 35.9565 116.547 34.681C117.378 35.0884 117.724 35.7786 117.583 36.7516C119.923 37.0966 122.34 37.4416 124.836 37.7868C124.771 38.1009 124.599 38.2734 124.318 38.3044C122.002 37.794 119.584 37.6214 117.065 37.7868C117.142 38.3314 117.056 38.849 116.806 39.3397C114.506 41.3112 112.261 41.3112 110.072 39.3397C108.782 34.5028 110.595 32.6048 115.511 33.6458Z" fill="#6A5749"/>
<path fill-rule="evenodd" clip-rule="evenodd" d="M144.521 38.8221C144.398 39.4903 144.57 40.008 145.039 40.375C143.806 44.0481 142.424 47.6715 140.894 51.2452C139.892 50.909 138.856 50.7364 137.786 50.7275C138.721 50.2717 139.498 49.5815 140.117 48.657C141.91 45.4281 143.378 42.1497 144.521 38.8221Z" fill="#6E6C68"/>
<path fill-rule="evenodd" clip-rule="evenodd" d="M77.1769 37.2692C77.4862 37.391 77.6587 37.6498 77.6949 38.0457C76.647 40.4923 76.4745 42.9942 77.1769 45.5513C77.7918 44.9546 78.3098 44.9546 78.731 45.5513C77.8773 46.2293 77.0142 46.9194 76.1408 47.6218C75.3032 43.988 75.6487 40.5372 77.1769 37.2692Z" fill="#767968"/>
<path fill-rule="evenodd" clip-rule="evenodd" d="M124.318 38.8221C124.49 39.3397 124.836 39.6848 125.354 39.8573C124.09 41.7459 123.226 43.8164 122.763 46.0689C121.927 45.2538 120.891 44.9087 119.655 45.0336C120.189 44.6462 120.794 44.3011 121.468 43.9984C122.031 42.0074 122.981 40.2819 124.318 38.8221Z" fill="#6B6964"/>
<path fill-rule="evenodd" clip-rule="evenodd" d="M329.975 44.516C331.357 44.516 332.738 44.516 334.119 44.516C335.328 44.8611 336.537 45.2061 337.745 45.5512C336.364 45.5512 334.983 45.5512 333.601 45.5512C332.393 45.2061 331.184 44.8611 329.975 44.516Z" fill="#74726F"/>
<path fill-rule="evenodd" clip-rule="evenodd" d="M337.745 45.5512C336.537 45.2061 335.328 44.8611 334.119 44.516C335.122 44.1798 336.158 44.0073 337.227 43.9984C336.993 41.9663 337.683 40.3272 339.3 39.0809C343.816 38.2471 345.801 40.0588 345.257 44.516C343.137 48.134 340.633 48.4791 337.745 45.5512Z" fill="#6A5644"/>
<path fill-rule="evenodd" clip-rule="evenodd" d="M339.3 40.375C343.175 39.3369 344.815 40.7172 344.221 44.516C342.758 46.1057 341.032 46.4508 339.04 45.5513C337.938 43.7267 338.025 42.0013 339.3 40.375Z" fill="#866748"/>
<path fill-rule="evenodd" clip-rule="evenodd" d="M332.047 45.5513C331.99 45.8709 331.817 46.1297 331.529 46.3277C335.139 49.417 338.593 52.6951 341.89 56.1626C342.707 56.7289 343.571 57.1606 344.48 57.4567C344.113 57.9247 343.594 58.097 342.926 57.9743C342.926 58.492 342.926 59.0096 342.926 59.5272C342.753 59.5272 342.58 59.5272 342.408 59.5272C342.513 58.5489 342.168 57.7725 341.372 57.1979C337.452 53.8799 333.481 50.6877 329.457 47.6218C330.321 46.9316 331.184 46.2414 332.047 45.5513Z" fill="#666663"/>
<path fill-rule="evenodd" clip-rule="evenodd" d="M274.546 41.4102C274.852 42.0655 275.111 42.7557 275.323 43.4807C275.495 43.1356 275.668 42.7906 275.841 42.4455C276.224 43.3869 276.829 44.0771 277.654 44.516C277.165 47.0551 276.992 49.6432 277.136 52.2804C276.71 50.4806 276.451 48.5826 276.359 46.5865C276.187 46.9316 276.013 47.2767 275.841 47.6218C275.935 50.7478 275.849 53.8535 275.582 56.9391C276.273 56.9391 276.964 56.9391 277.654 56.9391C277.768 57.5473 277.595 58.0649 277.136 58.4919C276.437 57.7414 275.574 57.3961 274.546 57.4567C274.388 54.7329 274.561 52.0589 275.064 49.4335C274.698 48.0285 274.008 46.9069 272.992 46.0689C272.801 44.2342 273.319 42.6814 274.546 41.4102Z" fill="#696863"/>
<path fill-rule="evenodd" clip-rule="evenodd" d="M150.219 42.4455C151.495 42.6134 152.877 42.6997 154.363 42.7043C155.96 43.1112 157.082 44.0601 157.73 45.5513C157.848 49.9131 155.69 51.7248 151.255 50.9864C149.135 48.8548 148.617 46.353 149.701 43.4808C149.612 42.9675 149.785 42.6224 150.219 42.4455Z" fill="#6E5746"/>
<path fill-rule="evenodd" clip-rule="evenodd" d="M151.255 43.4807C156.675 43.1927 158.056 45.3495 155.399 49.9511C150.405 50.3053 149.024 48.1485 151.255 43.4807Z" fill="#8C6847"/>
<path fill-rule="evenodd" clip-rule="evenodd" d="M119.655 45.0336C120.891 44.9087 121.927 45.2538 122.763 46.0689C123.083 46.1262 123.342 46.2987 123.541 46.5865C123.886 47.9669 123.886 49.3472 123.541 50.7275C121.296 52.798 119.051 52.798 116.806 50.7275C115.853 47.8009 116.803 45.9029 119.655 45.0336Z" fill="#795F48"/>
<path fill-rule="evenodd" clip-rule="evenodd" d="M196.324 47.6218C196.428 48.8897 196.256 50.0976 195.806 51.2452C195.806 51.5903 195.633 51.7628 195.287 51.7628C191.513 52.0433 190.045 50.3179 190.884 46.5865C193.108 44.9874 194.921 45.3324 196.324 47.6218Z" fill="#876749"/>
<path fill-rule="evenodd" clip-rule="evenodd" d="M241.392 29.5048C243.875 31.3792 246.293 33.3634 248.644 35.4575C256.796 39.2715 264.739 43.4989 272.474 48.1394C272.955 47.524 273.128 46.8338 272.992 46.0689C274.008 46.9069 274.698 48.0285 275.064 49.4335C274.561 52.0589 274.388 54.7329 274.546 57.4567C274.546 57.802 274.546 58.1467 274.546 58.492C274.381 60.8378 274.554 63.0812 275.064 65.2211C275.298 70.6422 276.507 75.8185 278.69 80.75C278.374 81.2112 278.202 81.7288 278.172 82.3028C279.308 84.5778 279.826 86.9936 279.726 89.5496C279.328 89.1547 279.069 88.6371 278.949 87.9968C278.79 88.415 278.531 88.7603 278.172 89.032C277.817 92.0793 277.471 95.0986 277.136 98.0905C277.309 98.177 277.482 98.2629 277.654 98.3493C278.159 97.1883 278.332 95.9807 278.172 94.7259C278.69 94.7259 279.208 94.7259 279.726 94.7259C278.884 97.5884 278.539 100.522 278.69 103.526C278.184 102.083 278.012 100.53 278.172 98.867C277.654 98.867 277.136 98.867 276.618 98.867C277.174 94.5717 277.26 90.2578 276.877 85.9262C275 80.149 273.618 74.2827 272.733 68.3269C272.312 69.329 272.053 70.3643 271.956 71.4327C271.088 71.0791 270.742 70.3886 270.92 69.3621C271.137 64.9447 271.569 60.6308 272.215 56.4214C269.884 54.4374 267.553 52.4528 265.221 50.4687C261.953 49.1807 258.844 47.6278 255.897 45.8101C251.835 44.2661 248.295 45.0426 245.277 48.1394C244.611 53.4373 244.266 58.786 244.241 64.1859C241.889 68.0929 238.953 71.5434 235.435 74.5384C236.297 72.6506 237.333 70.753 238.543 68.8445C240.131 67.5184 241.426 65.9655 242.428 64.1859C242.515 59.4387 242.687 54.6936 242.946 49.9511C242.774 49.6923 242.601 49.4335 242.428 49.1746C238.362 52.5418 233.7 54.2671 228.441 54.3509C228.046 53.9534 227.528 53.6946 226.887 53.5745C227.233 53.4021 227.578 53.2292 227.923 53.0569C227.254 52.8032 226.562 52.7168 225.851 52.798C225.161 52.6257 225.161 52.4528 225.851 52.2804C228.103 52.3663 230.347 52.2799 232.586 52.0216C236.606 50.4428 240.232 48.1997 243.464 45.2924C245.323 44.2763 247.222 43.4136 249.163 42.7043C244.626 39.7539 240.309 36.5619 236.212 33.1282C236.666 33.1959 237.011 33.0234 237.248 32.6105C236.621 31.9789 236.621 31.375 237.248 30.7988C236.875 29.7003 236.27 29.4415 235.435 30.0224C234.704 28.9093 234.272 27.7015 234.14 26.399C233.531 26.5124 233.013 26.3398 232.586 25.8814C233.129 25.0468 233.906 24.5292 234.917 24.3285C236.611 24.9995 236.87 25.8622 235.694 26.9166C236.329 27.4811 236.761 28.1713 236.989 28.9871C238.463 28.5948 239.672 29.1124 240.615 30.54C240.986 30.2583 241.245 29.9132 241.392 29.5048Z" fill="#53524F"/>
<path fill-rule="evenodd" clip-rule="evenodd" d="M196.842 47.1042C196.496 47.1042 196.324 47.2767 196.324 47.6218C194.921 45.3325 193.108 44.9874 190.884 46.5865C190.045 50.3179 191.513 52.0434 195.287 51.7628C190.762 53.0227 188.949 51.2973 189.848 46.5865C192.436 43.8106 194.767 43.9831 196.842 47.1042Z" fill="#6F5947"/>
<path fill-rule="evenodd" clip-rule="evenodd" d="M137.786 50.7275C138.856 50.7364 139.892 50.909 140.894 51.2452C142.024 52.0377 142.542 53.1594 142.449 54.6098C142.549 55.6491 142.203 56.4256 141.412 56.9391C139.986 58.477 138.259 58.8217 136.232 57.9743C133.788 54.868 134.306 52.4523 137.786 50.7275Z" fill="#6E5945"/>
<path fill-rule="evenodd" clip-rule="evenodd" d="M141.413 56.9391C137.197 58.4293 135.384 57.0488 135.973 52.798C140.304 50.6448 142.117 52.0252 141.413 56.9391Z" fill="#8B6948"/>
<path fill-rule="evenodd" clip-rule="evenodd" d="M196.842 47.1041C197.186 48.0716 197.531 49.1069 197.878 50.2099C200.011 51.0536 202.084 52.0026 204.094 53.0569C206.541 53.3799 208.958 53.207 211.346 52.5392C215.256 48.5211 219.573 48.0897 224.297 51.2452C224.175 51.554 223.916 51.7266 223.52 51.7628C221.168 50.4232 218.664 49.9918 216.009 50.4687C216.699 50.6412 217.39 50.8138 218.081 50.9863C217.799 51.3576 217.453 51.6164 217.045 51.7628C216.474 51.1943 215.784 51.108 214.973 51.504C213.127 52.7634 211.228 53.8851 209.274 54.8685C207.711 54.7831 206.157 54.8696 204.612 55.1274C201.06 57.2015 197.261 58.4956 193.215 59.0096C193.043 58.6643 192.87 58.3196 192.697 57.9743C196.224 57.568 199.504 56.4463 202.54 54.6097C200.406 53.1987 198.162 52.077 195.806 51.2452C196.256 50.0976 196.428 48.8897 196.324 47.6218C196.324 47.2767 196.496 47.1041 196.842 47.1041Z" fill="#626059"/>
<path fill-rule="evenodd" clip-rule="evenodd" d="M224.297 51.2452C224.924 51.4689 225.442 51.8139 225.851 52.2804C225.161 52.4528 225.161 52.6257 225.851 52.7981C223.781 53.0916 221.709 53.5228 219.635 54.0921C222.053 54.2645 224.47 54.4374 226.887 54.6098C222.576 57.3972 218.086 57.656 213.419 55.3862C213.104 55.4504 212.932 55.6228 212.9 55.9038C212.382 55.9038 211.864 55.9038 211.346 55.9038C212.931 54.1563 214.83 52.7758 217.045 51.7628C217.453 51.6164 217.799 51.3576 218.081 50.9864C217.39 50.8138 216.699 50.6413 216.009 50.4687C218.664 49.9919 221.168 50.4232 223.52 51.7628C223.916 51.7266 224.175 51.5541 224.297 51.2452Z" fill="#7A7F66"/>
<path fill-rule="evenodd" clip-rule="evenodd" d="M225.851 52.798C226.562 52.7168 227.254 52.8032 227.923 53.0568C227.578 53.2292 227.233 53.4021 226.887 53.5745C227.528 53.6946 228.046 53.9534 228.441 54.3509C223.65 59.0722 218.47 59.5898 212.9 55.9038C212.932 55.6227 213.104 55.4504 213.419 55.3862C218.086 57.656 222.576 57.3972 226.887 54.6097C224.47 54.4374 222.052 54.2645 219.635 54.0921C221.709 53.5227 223.781 53.0915 225.851 52.798Z" fill="#616259"/>
<path fill-rule="evenodd" clip-rule="evenodd" d="M192.697 57.9743C192.87 58.3196 193.043 58.6643 193.215 59.0096C193.06 60.8451 192.197 62.3116 190.625 63.4094C186.658 63.7568 185.017 61.9451 185.704 57.9743C188.034 55.2418 190.365 55.2418 192.697 57.9743Z" fill="#745B48"/>
<path fill-rule="evenodd" clip-rule="evenodd" d="M188.553 56.9391C190.103 56.8511 191.139 57.5411 191.661 59.0096C191.075 59.5811 190.643 59.4087 190.366 58.492C190.112 59.1613 190.026 59.8518 190.107 60.5625C186.612 59.578 186.267 60.0956 189.071 62.1154C189.599 61.501 190.204 60.9833 190.884 60.5625C191.23 61.0801 191.23 61.5978 190.884 62.1154C190.712 61.943 190.539 61.7701 190.366 61.5978C189.191 62.9198 187.982 62.9198 186.74 61.5978C186.395 60.3901 186.395 59.182 186.74 57.9744C187.415 57.6715 188.019 57.3268 188.553 56.9391Z" fill="#8B694C"/>
<path fill-rule="evenodd" clip-rule="evenodd" d="M310.29 38.3045C318.732 50.8419 325.294 64.3003 329.975 78.6795C330.169 80.179 329.91 81.559 329.198 82.8205C329.164 81.587 328.733 81.2417 327.903 81.7852C327.73 81.5264 327.557 81.2676 327.385 81.0088C327.906 80.3162 328.424 79.6262 328.939 78.9383C328.248 79.1107 327.557 79.2835 326.867 79.4559C327.522 78.7638 327.781 77.9874 327.644 77.1266C326.691 77.8166 326.432 77.7301 326.867 76.8678C326.323 76.6131 325.805 76.699 325.313 77.1266C324.967 76.7813 324.622 76.4366 324.277 76.0913C324.104 76.3501 323.931 76.609 323.759 76.8678C324.759 78.5423 325.104 80.2676 324.795 82.0441C324.487 82.2842 324.141 82.3707 323.759 82.3029C323.372 77.6939 322.422 73.2076 320.909 68.8445C318.842 64.3764 316.769 59.8901 314.693 55.3862C312.496 51.1699 309.906 47.2014 306.923 43.4808C304.896 41.2277 302.738 39.1572 300.447 37.2692C300.447 36.5791 300.447 35.8889 300.447 35.1987C300.992 35.1213 301.51 35.2076 302.001 35.4575C301.568 35.981 301.395 36.5849 301.483 37.2692C303.522 37.9033 305.163 39.1111 306.405 40.8926C307.528 40.3082 307.787 39.5317 307.182 38.5633C308.204 38.3068 309.24 38.2206 310.29 38.3045Z" fill="#4C4B48"/>
<path fill-rule="evenodd" clip-rule="evenodd" d="M344.48 57.4567C349.517 57.4282 350.726 59.5847 348.106 63.9271C346.046 65.2206 344.32 64.9618 342.926 63.1506C342.957 62.8695 343.129 62.6972 343.444 62.633C346.361 64.4778 348.087 63.7014 348.624 60.3037C347.893 59.3792 347.029 58.6027 346.034 57.9743C344.873 58.2999 343.837 58.8175 342.926 59.5272C342.926 59.0096 342.926 58.492 342.926 57.9743C343.594 58.097 344.113 57.9246 344.48 57.4567Z" fill="#75604E"/>
<path fill-rule="evenodd" clip-rule="evenodd" d="M217.045 51.7628C214.83 52.7758 212.931 54.1563 211.346 55.9038C208.488 57.8936 206.416 60.4817 205.13 63.6682C204.72 68.962 204.115 74.3107 203.317 79.7147C203.063 79.0454 202.977 78.3549 203.058 77.6442C203.058 76.9542 203.058 76.2637 203.058 75.5737C203.417 73.4695 203.762 71.3126 204.094 69.1033C203.45 68.8673 203.018 69.1261 202.799 69.8798C202.559 69.5723 202.472 69.2271 202.54 68.8445C203.479 67.2937 203.652 65.7408 203.058 64.1859C203.058 64.0135 203.058 63.8406 203.058 63.6682C204.727 60.4481 206.799 57.5147 209.274 54.8686C211.228 53.8851 213.127 52.7634 214.973 51.504C215.784 51.108 216.474 51.1943 217.045 51.7628Z" fill="#4C4D47"/>
<path fill-rule="evenodd" clip-rule="evenodd" d="M342.926 63.1506C342.152 62.7303 341.807 62.0403 341.89 61.0801C341.9 60.4455 342.073 59.9279 342.408 59.5272C342.58 59.5272 342.753 59.5272 342.926 59.5272C343.837 58.8176 344.873 58.3 346.034 57.9744C347.029 58.6028 347.893 59.3792 348.624 60.3037C348.087 63.7014 346.361 64.4778 343.444 62.633C343.129 62.6972 342.957 62.8696 342.926 63.1506Z" fill="#8B6C50"/>
<path fill-rule="evenodd" clip-rule="evenodd" d="M274.546 58.4919C275.06 58.4029 275.405 58.5758 275.582 59.0096C275.073 60.9755 274.9 63.046 275.064 65.2211C274.554 63.0812 274.381 60.8378 274.546 58.4919Z" fill="#9B9D9C"/>
<path fill-rule="evenodd" clip-rule="evenodd" d="M203.058 63.6682C203.058 63.8406 203.058 64.0135 203.058 64.1858C200.319 68.3031 197.383 72.2712 194.251 76.0913C193.215 76.4365 192.179 76.7813 191.143 77.1265C190.966 76.6928 190.621 76.5199 190.107 76.6089C191.354 75.9816 192.563 75.2051 193.733 74.2796C192.352 74.1072 190.971 73.9343 189.589 73.762C190.733 73.6631 191.769 73.4043 192.697 72.9855C194.001 72.8535 195.21 72.4218 196.324 71.6914C198.303 68.7669 200.548 66.0923 203.058 63.6682Z" fill="#5B5F53"/>
<path fill-rule="evenodd" clip-rule="evenodd" d="M270.92 69.3622C270.742 70.3886 271.088 71.0792 271.956 71.4327C271.242 73.6274 270.638 75.8708 270.143 78.1619C267.477 82.4773 263.592 84.0302 258.487 82.8205C258.43 82.5011 258.257 82.2423 257.969 82.0441C260.559 81.8717 263.149 81.6988 265.739 81.5264C266.725 80.7774 267.589 79.9146 268.33 78.9383C267.481 79.0636 266.704 79.4948 265.998 80.2324C264.753 79.9922 263.458 79.9058 262.113 79.9736C263.237 79.1526 264.446 78.4621 265.739 77.903C266.626 77.3166 266.885 76.5401 266.516 75.5737C266.171 76.2637 265.653 76.7813 264.962 77.1266C264.726 76.4827 264.985 76.0515 265.739 75.8325C263.7 75.5214 262.146 76.2979 261.077 78.1619C260.664 77.9253 260.491 77.58 260.559 77.1266C261.843 75.9345 263.224 74.8133 264.703 73.762C267.484 73.1186 269.556 71.6517 270.92 69.3622Z" fill="#6A6D5D"/>
<path fill-rule="evenodd" clip-rule="evenodd" d="M258.487 82.8205C257.971 82.836 257.625 82.5772 257.451 82.044C258.303 80.2489 259.339 78.6096 260.559 77.1266C260.491 77.58 260.664 77.9253 261.077 78.1618C262.146 76.2978 263.7 75.5214 265.739 75.8325C264.985 76.0514 264.726 76.4826 264.962 77.1266C265.653 76.7813 266.171 76.2637 266.516 75.5737C266.885 76.5401 266.626 77.3165 265.739 77.903C264.446 78.462 263.237 79.1526 262.113 79.9735C263.458 79.9057 264.753 79.9921 265.998 80.2323C266.704 79.4947 267.481 79.0635 268.33 78.9383C267.589 79.9145 266.725 80.7774 265.739 81.5264C263.149 81.6988 260.559 81.8717 257.969 82.044C258.257 82.2423 258.43 82.5011 258.487 82.8205Z" fill="#82866D"/>
<path fill-rule="evenodd" clip-rule="evenodd" d="M205.13 63.6682C205.045 65.2304 205.131 66.7833 205.389 68.3269C208.303 71.6852 208.994 75.481 207.461 79.7147C205.711 82.2625 203.898 84.7641 202.022 87.2203C201.591 87.5764 201.246 87.49 200.986 86.9615C197.805 80.5476 198.323 74.5084 202.54 68.8445C202.472 69.227 202.559 69.5723 202.799 69.8798C203.018 69.1261 203.45 68.8673 204.094 69.1033C203.762 71.3125 203.417 73.4695 203.058 75.5737C203.239 71.5263 202.548 71.1816 200.986 74.5384C201.649 75.6782 201.649 76.7994 200.986 77.903C201.616 78.756 202.048 79.7049 202.281 80.7499C202.38 79.607 202.639 78.5718 203.058 77.6442C202.977 78.3549 203.063 79.0454 203.317 79.7147C204.115 74.3106 204.72 68.962 205.13 63.6682Z" fill="#848772"/>
<path fill-rule="evenodd" clip-rule="evenodd" d="M203.058 75.5737C203.058 76.2637 203.058 76.9542 203.058 77.6442C202.639 78.5718 202.38 79.607 202.281 80.75C202.048 79.7049 201.616 78.756 200.986 77.903C201.649 76.7994 201.649 75.6782 200.986 74.5384C202.548 71.1816 203.239 71.5263 203.058 75.5737Z" fill="#969C7B"/>
<path fill-rule="evenodd" clip-rule="evenodd" d="M192.697 72.9856C191.769 73.4043 190.733 73.6631 189.589 73.762C190.971 73.9344 192.352 74.1073 193.733 74.2796C192.563 75.2052 191.354 75.9816 190.107 76.609C188.215 78.0739 186.143 79.282 183.891 80.2324C184.15 80.4047 184.409 80.5776 184.668 80.75C187.043 79.8669 189.202 78.6588 191.143 77.1266C192.179 76.7813 193.215 76.4366 194.251 76.0913C193.952 79.3638 192.397 81.8655 189.589 83.597C185.021 84.9811 180.358 85.2399 175.602 84.3734C177.507 82.5513 179.147 80.4808 180.524 78.1619C183.821 74.6761 187.879 72.9504 192.697 72.9856Z" fill="#7B8169"/>
<path fill-rule="evenodd" clip-rule="evenodd" d="M190.107 76.6089C190.621 76.5199 190.966 76.6928 191.143 77.1266C189.202 78.6588 187.043 79.8669 184.668 80.75C184.409 80.5776 184.15 80.4047 183.891 80.2323C186.143 79.282 188.215 78.0738 190.107 76.6089Z" fill="#3F4938"/>
<path fill-rule="evenodd" clip-rule="evenodd" d="M278.69 80.75C280.253 82.8283 282.152 84.5535 284.388 85.9263C283.87 86.2715 283.352 86.6163 282.834 86.9615C281.094 85.567 279.54 84.0142 278.172 82.3029C278.202 81.7288 278.374 81.2112 278.69 80.75Z" fill="#62615D"/>
<path fill-rule="evenodd" clip-rule="evenodd" d="M284.388 92.6554C283.875 92.7445 283.53 92.5716 283.352 92.1378C283.321 90.6791 283.493 89.1263 283.87 87.4792C285.982 85.8931 287.537 86.3243 288.533 88.7732C288.379 89.7505 288.12 90.6998 287.756 91.6202C286.576 91.9396 285.454 92.2848 284.388 92.6554Z" fill="#896A4C"/>
<path fill-rule="evenodd" clip-rule="evenodd" d="M284.388 85.9263C287.565 85.1379 289.292 86.3456 289.569 89.5497C288.935 92.6228 287.208 93.6581 284.388 92.6554C285.454 92.2848 286.576 91.9396 287.756 91.6202C288.12 90.6998 288.379 89.7505 288.533 88.7732C287.537 86.3243 285.982 85.8931 283.87 87.4792C283.493 89.1263 283.321 90.6791 283.352 92.1378C282.523 91.6103 282.005 90.8339 281.798 89.8085C282.223 88.8768 282.568 87.9274 282.834 86.9615C283.352 86.6163 283.87 86.2715 284.388 85.9263Z" fill="#635343"/>
<path fill-rule="evenodd" clip-rule="evenodd" d="M279.726 89.5496C279.726 91.2749 279.726 93.0007 279.726 94.7259C279.208 94.7259 278.69 94.7259 278.172 94.7259C278.332 95.9807 278.159 97.1883 277.654 98.3493C277.482 98.2629 277.309 98.177 277.136 98.0905C277.471 95.0986 277.817 92.0793 278.172 89.032C278.531 88.7603 278.79 88.415 278.949 87.9968C279.069 88.6371 279.328 89.1547 279.726 89.5496Z" fill="#40403E"/>
<path fill-rule="evenodd" clip-rule="evenodd" d="M276.618 98.8669C277.181 100.783 277.526 102.768 277.654 104.82C277.653 106.383 277.48 107.85 277.136 109.22C277.222 106.453 277.136 103.693 276.877 100.937C275.945 104.358 274.477 107.464 272.474 110.255C272.474 109.565 272.128 109.22 271.438 109.22C273.731 106.018 275.457 102.567 276.618 98.8669Z" fill="#656561"/>
<path fill-rule="evenodd" clip-rule="evenodd" d="M277.136 52.2804C278.376 54.3002 279.93 56.1119 281.798 57.7155C286.301 61.5268 290.79 65.3226 295.267 69.1033C299.549 71.4865 303.693 74.0746 307.7 76.8677C308.736 77.0401 309.772 77.213 310.808 77.3854C314.934 79.7483 319.164 81.9053 323.5 83.8557C323.75 83.365 323.836 82.8474 323.759 82.3028C324.141 82.3706 324.487 82.2842 324.795 82.044C325.104 80.2675 324.759 78.5423 323.759 76.8677C323.931 76.6089 324.104 76.3501 324.277 76.0913C324.622 76.4366 324.967 76.7813 325.313 77.1266C325.805 76.699 326.323 76.6131 326.867 76.8677C326.432 77.7301 326.691 77.8165 327.644 77.1266C327.781 77.9874 327.522 78.7638 326.867 79.4559C327.557 79.2835 328.248 79.1106 328.939 78.9382C328.424 79.6262 327.906 80.3162 327.385 81.0088C327.557 81.2676 327.73 81.5264 327.903 81.7852C328.733 81.2417 329.164 81.587 329.198 82.8205C329.91 81.559 330.169 80.179 329.975 78.6794C330.33 81.4663 331.021 84.2274 332.047 86.9615C336.42 88.7142 340.564 90.8711 344.48 93.4318C349.872 97.0081 354.88 101.063 359.503 105.596C359.503 108.184 359.503 110.772 359.503 113.361C355.102 109.05 350.612 104.822 346.034 100.679C342.347 98.4492 338.634 96.2928 334.896 94.2083C335.661 98.2955 336.265 102.436 336.709 106.631C335.595 106.93 335.422 107.534 336.191 108.443C335.46 109.674 334.856 110.968 334.378 112.325C334.184 111.851 333.925 111.419 333.601 111.031C334.02 110.872 334.365 110.613 334.637 110.255C334.066 109.997 333.548 109.825 333.083 109.737C333.256 109.392 333.429 109.047 333.601 108.702C333.232 107.524 332.973 106.316 332.824 105.078C332.61 104.842 332.351 104.669 332.047 104.561C331.554 105.361 331.381 106.223 331.529 107.149C330.682 102.764 329.042 98.6231 326.608 94.7259C326.083 97.6857 325.478 100.619 324.795 103.526C324.152 102.926 323.461 102.408 322.723 101.973C323.176 102.041 323.522 101.868 323.759 101.455C325.069 98.2634 325.414 94.9847 324.795 91.6201C320.132 89.1184 315.47 86.6162 310.808 84.1145C307.212 82.9742 303.586 81.9389 299.929 81.0088C299.012 78.7892 297.631 76.891 295.785 75.3149C287.74 71.5036 281.006 66.0685 275.582 59.0096C275.405 58.5758 275.06 58.4029 274.546 58.4919C274.546 58.1467 274.546 57.8019 274.546 57.4567C275.574 57.3961 276.437 57.7414 277.136 58.4919C277.595 58.0649 277.768 57.5473 277.654 56.9391C276.964 56.9391 276.272 56.9391 275.582 56.9391C275.849 53.8535 275.935 50.7478 275.841 47.6217C276.013 47.2766 276.186 46.9316 276.359 46.5865C276.451 48.5826 276.71 50.4806 277.136 52.2804Z" fill="#595753"/>
<path fill-rule="evenodd" clip-rule="evenodd" d="M325.313 108.184C325.14 108.702 324.795 109.047 324.277 109.22C322.87 109.183 321.403 109.011 319.873 108.702C317.992 103.767 319.46 102.214 324.277 104.043C324.623 105.496 324.968 106.876 325.313 108.184Z" fill="#826346"/>
<path fill-rule="evenodd" clip-rule="evenodd" d="M276.618 98.8669C277.136 98.8669 277.654 98.8669 278.172 98.8669C278.012 100.53 278.184 102.083 278.69 103.526C278.776 105.775 278.69 108.018 278.431 110.255C277.733 111.272 276.956 111.445 276.1 110.772C276.446 110.255 276.791 109.737 277.136 109.22C277.48 107.85 277.653 106.383 277.654 104.82C277.526 102.768 277.181 100.783 276.618 98.8669Z" fill="#3D3E39"/>
<path fill-rule="evenodd" clip-rule="evenodd" d="M336.709 106.631C337.215 113.186 337.301 119.742 336.968 126.301C337.828 130.259 339.123 134.055 340.854 137.689C340.854 138.379 340.508 138.724 339.818 138.724C338.706 137.206 337.584 135.653 336.45 134.066C335.784 132.062 334.921 130.165 333.86 128.372C327.531 137.115 325.631 146.778 328.162 157.359C330.851 167.35 335.772 175.977 342.926 183.24C342.325 183.882 341.807 184.573 341.372 185.311C341.038 183.148 339.915 181.423 338.004 180.135C338.169 182.361 338.428 184.604 338.781 186.864C338.778 187.831 338.605 188.694 338.263 189.452C337.918 188.244 337.573 187.036 337.227 185.828C337.308 183.716 337.049 181.645 336.45 179.617C333.777 174.272 330.842 169.096 327.644 164.088C326.78 161.672 325.917 159.257 325.054 156.841C324.881 152.355 324.708 147.869 324.536 143.383C322.146 147.462 319.037 150.913 315.211 153.736C313.801 155.318 312.592 157.043 311.585 158.912C311.046 166.219 310.096 173.465 308.736 180.652C308.299 179.18 307.954 177.627 307.7 175.994C307.7 175.131 307.7 174.268 307.7 173.405C308.272 172.631 308.79 171.768 309.254 170.817C309.198 170.33 309.025 169.898 308.736 169.523C309.154 169.364 309.5 169.105 309.772 168.747C309.593 168.128 309.334 168.128 308.995 168.747C308.736 165.646 308.65 162.54 308.736 159.429C309.068 158.921 309.413 158.404 309.772 157.877C309.512 157.348 309.167 157.262 308.736 157.618C307.43 158.53 306.222 159.566 305.11 160.724C299.791 163.797 294.611 167.076 289.569 170.558C288.673 171.484 288.328 172.606 288.533 173.923C288.187 173.578 287.842 173.233 287.497 172.888C287.43 172 287.257 171.137 286.979 170.3C286.979 170.127 286.979 169.954 286.979 169.782C291.375 167.64 295.519 165.051 299.411 162.018C299.82 161.871 300.166 161.612 300.447 161.241C299.538 161.137 298.675 160.878 297.857 160.465C299.658 160.119 301.386 159.774 303.038 159.429C309.487 155.923 315.013 151.264 319.614 145.453C320.502 144.866 320.847 144.003 320.65 142.865C313.744 142.348 313.744 141.83 320.65 141.312C320.65 140.622 320.65 139.932 320.65 139.242C321.577 139.389 322.44 139.217 323.241 138.724C329.471 129.181 332.234 118.656 331.529 107.149C331.381 106.223 331.554 105.361 332.047 104.561C332.351 104.669 332.61 104.842 332.824 105.078C332.973 106.316 333.232 107.524 333.601 108.702C333.429 109.047 333.256 109.392 333.083 109.737C333.548 109.825 334.066 109.997 334.637 110.255C334.365 110.613 334.02 110.872 333.601 111.031C333.925 111.419 334.185 111.851 334.378 112.325C334.856 110.968 335.46 109.674 336.191 108.443C335.422 107.534 335.595 106.93 336.709 106.631Z" fill="#565351"/>
<path fill-rule="evenodd" clip-rule="evenodd" d="M322.723 101.973C323.461 102.408 324.152 102.926 324.795 103.526C325.92 104.935 326.093 106.487 325.313 108.184C324.968 106.876 324.623 105.496 324.277 104.043C319.46 102.214 317.992 103.767 319.873 108.702C321.403 109.011 322.87 109.183 324.277 109.22C321.75 110.939 319.764 110.421 318.319 107.667C317.588 104.003 319.055 102.105 322.723 101.973Z" fill="#695848"/>
<path fill-rule="evenodd" clip-rule="evenodd" d="M267.812 112.325C267.255 113.042 266.565 113.646 265.739 114.137C263.826 114.607 262.099 115.383 260.559 116.466C259.848 116.548 259.157 116.461 258.487 116.208C260.462 113.451 263.139 111.812 266.516 111.29C267.229 111.385 267.661 111.731 267.812 112.325Z" fill="#8C9375"/>
<path fill-rule="evenodd" clip-rule="evenodd" d="M271.438 109.22C272.128 109.22 272.474 109.565 272.474 110.255C270.931 111.279 269.55 112.487 268.33 113.878C266.254 115.174 264.009 116.036 261.595 116.466C261.25 116.466 260.905 116.466 260.559 116.466C262.099 115.383 263.826 114.607 265.739 114.137C266.565 113.646 267.255 113.042 267.812 112.325C268.395 112.003 268.913 111.572 269.366 111.031C268.052 110.935 266.843 110.676 265.739 110.255C267.584 109.877 269.483 109.532 271.438 109.22Z" fill="#4E5148"/>
<path fill-rule="evenodd" clip-rule="evenodd" d="M279.726 113.878C279.302 115.33 279.043 116.883 278.949 118.537C277.488 119.378 277.316 120.413 278.431 121.643C278.574 119.66 279.178 119.315 280.244 120.607C278.64 122.603 277.431 124.846 276.618 127.337C275.211 125.879 274.174 126.052 273.51 127.854C272.72 125.484 272.029 123.069 271.438 120.607C272.236 118.341 273.272 116.098 274.546 113.878C274.849 113.77 275.108 113.597 275.323 113.361C275.539 114.011 275.97 114.356 276.618 114.396C276.514 117.343 276.427 120.276 276.359 123.195C277.166 119.906 277.425 116.627 277.136 113.361C277.283 112.952 277.542 112.607 277.913 112.325C278.132 113.079 278.564 113.338 279.208 113.102C278.581 112.64 278.581 112.208 279.208 111.808C279.689 112.423 279.862 113.113 279.726 113.878Z" fill="#858A6C"/>
<path fill-rule="evenodd" clip-rule="evenodd" d="M265.739 110.255C266.843 110.676 268.052 110.935 269.366 111.031C268.913 111.572 268.395 112.003 267.812 112.325C267.661 111.731 267.229 111.385 266.516 111.29C263.139 111.812 260.462 113.451 258.487 116.207C259.157 116.461 259.848 116.548 260.559 116.466C260.905 116.466 261.25 116.466 261.595 116.466C260.02 116.852 258.639 117.542 257.451 118.537C259.469 119.055 261.887 119.227 264.703 119.054C262.041 119.566 259.278 119.738 256.415 119.572C257.278 114.223 260.387 111.118 265.739 110.255Z" fill="#7B7E6E"/>
<path fill-rule="evenodd" clip-rule="evenodd" d="M277.136 113.361C277.425 116.627 277.166 119.906 276.359 123.195C276.427 120.276 276.514 117.343 276.618 114.396C276.529 113.882 276.702 113.538 277.136 113.361Z" fill="#484B3F"/>
<path fill-rule="evenodd" clip-rule="evenodd" d="M268.33 113.878C269.121 113.887 269.38 114.232 269.107 114.913C268.33 116.035 267.38 116.984 266.257 117.76C263.363 118.428 260.427 118.686 257.451 118.537C258.639 117.542 260.02 116.852 261.595 116.466C264.009 116.036 266.254 115.174 268.33 113.878Z" fill="#888E72"/>
<path fill-rule="evenodd" clip-rule="evenodd" d="M279.726 113.878C280.236 116.018 280.409 118.261 280.244 120.607C279.178 119.315 278.574 119.66 278.431 121.643C277.316 120.413 277.488 119.378 278.949 118.537C279.043 116.883 279.302 115.33 279.726 113.878Z" fill="#9BA282"/>
<path fill-rule="evenodd" clip-rule="evenodd" d="M272.474 110.255C271.179 113.526 269.538 116.631 267.553 119.572C266.532 122.495 266.1 125.429 266.257 128.372C265.891 127.476 265.373 126.613 264.703 125.784C264.812 125.48 264.985 125.221 265.221 125.007C264.025 124.75 262.816 124.664 261.595 124.748C262.589 124.04 263.711 123.523 264.962 123.195C265.494 121.511 266.271 119.958 267.294 118.537C267.207 118.364 267.121 118.192 267.034 118.019C266.346 118.579 265.568 118.925 264.703 119.054C261.887 119.227 259.469 119.055 257.451 118.537C260.427 118.686 263.363 118.428 266.257 117.76C267.38 116.984 268.33 116.035 269.107 114.913C269.38 114.232 269.121 113.887 268.33 113.878C269.55 112.487 270.931 111.279 272.474 110.255Z" fill="#65655B"/>
<path fill-rule="evenodd" clip-rule="evenodd" d="M261.595 124.748C262.816 124.664 264.025 124.75 265.221 125.007C264.985 125.221 264.812 125.48 264.703 125.784C265.373 126.613 265.891 127.476 266.257 128.372C265.568 130.356 264.187 131.132 262.113 130.701C259.62 128.813 259.447 126.829 261.595 124.748Z" fill="#7A624C"/>
<path fill-rule="evenodd" clip-rule="evenodd" d="M278.69 103.526C278.902 107.411 279.679 111.207 281.021 114.913C281.367 117.156 281.367 119.4 281.021 121.643C279.269 124.934 277.284 128.039 275.064 130.96C274.521 129.91 274.003 128.875 273.51 127.854C274.174 126.052 275.211 125.879 276.618 127.337C277.431 124.846 278.64 122.603 280.244 120.607C280.409 118.261 280.236 116.018 279.726 113.878C279.862 113.113 279.689 112.423 279.208 111.808C278.581 112.208 278.581 112.64 279.208 113.102C278.564 113.338 278.132 113.079 277.913 112.325C277.542 112.607 277.283 112.952 277.136 113.361C276.702 113.538 276.529 113.882 276.618 114.396C275.971 114.356 275.539 114.011 275.323 113.361C275.109 113.597 274.849 113.77 274.546 113.878C273.272 116.098 272.236 118.341 271.438 120.607C271.421 116.668 272.975 113.39 276.1 110.772C276.956 111.445 277.733 111.272 278.431 110.255C278.69 108.018 278.776 105.775 278.69 103.526Z" fill="#727462"/>
<path fill-rule="evenodd" clip-rule="evenodd" d="M320.65 139.242C320.65 139.932 320.65 140.623 320.65 141.313C313.744 141.83 313.744 142.348 320.65 142.865C320.847 144.003 320.502 144.866 319.614 145.454C319.493 145.145 319.234 144.972 318.837 144.936C317.587 145.756 316.206 146.273 314.693 146.489C311.823 146.056 309.319 144.934 307.182 143.124C307.316 142.471 307.661 141.954 308.218 141.571C312.069 139.429 316.214 138.652 320.65 139.242Z" fill="#7A7D6A"/>
<path fill-rule="evenodd" clip-rule="evenodd" d="M346.034 144.936C346.034 145.281 345.861 145.453 345.516 145.453C344.056 146.28 342.501 146.539 340.854 146.23C338.965 144.781 338.793 143.142 340.336 141.312C341.686 140.716 343.067 140.63 344.48 141.054C345.159 142.337 345.677 143.631 346.034 144.936Z" fill="#896A4D"/>
<path fill-rule="evenodd" clip-rule="evenodd" d="M340.854 137.689C342.537 138.72 344.178 139.927 345.775 141.312C346.637 142.496 346.723 143.703 346.034 144.936C345.677 143.631 345.159 142.337 344.48 141.054C343.067 140.63 341.686 140.716 340.336 141.312C338.793 143.142 338.965 144.781 340.854 146.23C342.501 146.539 344.056 146.28 345.516 145.454C345.107 146.123 344.589 146.727 343.962 147.265C340.473 148.094 338.573 146.714 338.263 143.124C338.667 141.606 339.185 140.14 339.818 138.724C340.508 138.724 340.854 138.379 340.854 137.689Z" fill="#6E5B49"/>
<path fill-rule="evenodd" clip-rule="evenodd" d="M289.569 156.841C289.538 157.122 289.365 157.295 289.051 157.359C287.047 156.002 285.061 156.002 283.093 157.359C282.67 160.099 282.411 160.099 282.316 157.359C284.455 154.141 286.873 153.968 289.569 156.841Z" fill="#6D5948"/>
<path fill-rule="evenodd" clip-rule="evenodd" d="M291.123 158.912C295.049 159.412 299.021 159.584 303.037 159.429C301.385 159.774 299.658 160.119 297.857 160.465C298.675 160.878 299.538 161.137 300.447 161.241C300.166 161.612 299.82 161.871 299.411 162.018C297.437 161.591 295.364 161.332 293.195 161.241C292.184 161.052 291.321 160.621 290.605 159.947C289.812 159.209 289.984 158.865 291.123 158.912Z" fill="#5E5C59"/>
<path fill-rule="evenodd" clip-rule="evenodd" d="M289.569 156.841C290.004 157.579 290.522 158.27 291.123 158.912C289.984 158.865 289.812 159.21 290.605 159.947C289.942 160.787 289.251 161.65 288.533 162.535C283.421 164.325 281.349 162.599 282.316 157.359C282.411 160.099 282.67 160.099 283.093 157.359C285.061 156.002 287.047 156.002 289.051 157.359C289.365 157.295 289.538 157.122 289.569 156.841Z" fill="#83674D"/>
<path fill-rule="evenodd" clip-rule="evenodd" d="M308.736 159.429C308.65 162.54 308.736 165.646 308.995 168.747C309.334 168.128 309.593 168.128 309.772 168.747C309.5 169.105 309.154 169.364 308.736 169.523C309.025 169.898 309.198 170.33 309.254 170.817C308.79 171.768 308.272 172.631 307.7 173.405C307.986 168.668 308.332 164.009 308.736 159.429Z" fill="#666460"/>
<path fill-rule="evenodd" clip-rule="evenodd" d="M286.979 169.782C286.979 169.954 286.979 170.127 286.979 170.3C285.415 170.214 283.861 170.301 282.316 170.558C280.705 172.976 281.136 174.96 283.611 176.511C285.681 176.08 286.977 174.872 287.497 172.888C287.842 173.233 288.187 173.578 288.533 173.923C288.13 175.275 287.267 176.224 285.943 176.77C283.988 177.382 282.347 176.951 281.021 175.476C279.902 170.297 281.887 168.398 286.979 169.782Z" fill="#6B5745"/>
<path fill-rule="evenodd" clip-rule="evenodd" d="M286.979 170.3C287.257 171.137 287.43 172 287.497 172.888C286.977 174.872 285.681 176.081 283.611 176.511C281.136 174.96 280.705 172.976 282.316 170.558C283.861 170.301 285.415 170.214 286.979 170.3Z" fill="#85674C"/>
<path fill-rule="evenodd" clip-rule="evenodd" d="M307.7 175.994C307.954 177.627 308.299 179.18 308.736 180.652C308.825 181.166 308.652 181.51 308.218 181.687C307.844 181.143 307.326 180.798 306.664 180.652C306.918 179.019 307.263 177.466 307.7 175.994Z" fill="#757572"/>
<path fill-rule="evenodd" clip-rule="evenodd" d="M306.664 180.652C307.326 180.798 307.844 181.143 308.218 181.687C307.941 183.659 307.423 185.557 306.664 187.381C306.21 187.449 305.864 187.277 305.628 186.864C306.141 184.998 306.486 183.1 306.664 181.17C306.664 180.997 306.664 180.825 306.664 180.652Z" fill="#4B4A49"/>
<path fill-rule="evenodd" clip-rule="evenodd" d="M347.588 189.97C348.999 186.649 347.963 184.578 344.48 183.758C343.873 183.975 343.355 184.32 342.926 184.793C342.416 186.309 342.243 187.862 342.408 189.452C342.088 189.394 341.829 189.222 341.631 188.934C341.373 187.739 341.287 186.531 341.372 185.311C341.807 184.573 342.325 183.882 342.926 183.24C344.69 182.42 346.33 182.593 347.847 183.758C349.641 185.999 349.555 188.07 347.588 189.97Z" fill="#6B543F"/>
<path fill-rule="evenodd" clip-rule="evenodd" d="M347.588 189.97C345.672 191.49 343.946 191.317 342.408 189.452C342.243 187.862 342.416 186.309 342.926 184.793C343.355 184.32 343.873 183.975 344.48 183.758C347.963 184.578 348.999 186.649 347.588 189.97Z" fill="#856748"/>
<path fill-rule="evenodd" clip-rule="evenodd" d="M306.664 181.17C306.485 183.1 306.14 184.998 305.628 186.864C305.864 187.277 306.21 187.449 306.664 187.381C306.414 187.856 306.241 188.373 306.146 188.934C306.749 190.485 307.353 192.037 307.959 193.593C308.876 194.678 309.998 195.369 311.326 195.663C309.765 195.46 308.384 195.805 307.182 196.699C306.973 194.558 306.196 192.661 304.851 191.005C303.767 192.682 302.818 194.408 302.001 196.181C300.462 195.57 298.908 195.57 297.339 196.181C298.179 195.344 299.215 194.74 300.447 194.369C301.57 192.903 302.692 191.436 303.815 189.97C304.866 187.014 305.816 184.082 306.664 181.17Z" fill="#615F5B"/>
<path fill-rule="evenodd" clip-rule="evenodd" d="M337.227 185.828C337.573 187.036 337.918 188.244 338.263 189.452C338.016 191.955 337.412 194.37 336.45 196.699C335.472 202.072 336.94 206.644 340.854 210.416C344 210.038 345.9 211.333 346.552 214.298C344.697 211.857 342.279 211.167 339.3 212.228C337.966 209.668 336.585 207.08 335.155 204.463C333.025 208.03 331.471 211.825 330.493 215.851C330.025 216.218 329.852 216.736 329.975 217.404C329.111 217.404 328.248 217.404 327.385 217.404C330.428 212.601 332.673 207.424 334.119 201.875C334.695 200.788 335.041 199.58 335.155 198.252C336.291 194.202 336.982 190.061 337.227 185.828Z" fill="#68625D"/>
<path fill-rule="evenodd" clip-rule="evenodd" d="M311.326 195.663C310.347 196.089 309.311 196.52 308.218 196.958C306.754 200.41 307.79 202.395 311.326 202.91C306.893 202.957 305.512 200.887 307.182 196.699C308.384 195.805 309.765 195.46 311.326 195.663Z" fill="#58493A"/>
<path fill-rule="evenodd" clip-rule="evenodd" d="M302.001 196.181C302.375 196.397 302.634 196.742 302.778 197.216C303.233 201.869 301.247 203.336 296.821 201.616C295.286 199.58 295.459 197.769 297.339 196.181C298.908 195.57 300.462 195.57 302.001 196.181Z" fill="#7B634C"/>
<path fill-rule="evenodd" clip-rule="evenodd" d="M311.326 195.663C314.77 198.053 314.77 200.469 311.326 202.91C307.79 202.395 306.754 200.41 308.218 196.958C309.311 196.52 310.347 196.089 311.326 195.663Z" fill="#866B51"/>
<path fill-rule="evenodd" clip-rule="evenodd" d="M335.155 198.252C335.041 199.58 334.695 200.788 334.119 201.875C333.949 200.463 334.294 199.255 335.155 198.252Z" fill="#C0C0BF"/>
<path fill-rule="evenodd" clip-rule="evenodd" d="M346.552 214.298C346.672 215.998 345.981 217.293 344.48 218.18C339.566 218.973 337.839 216.989 339.299 212.228C342.279 211.167 344.697 211.857 346.552 214.298Z" fill="#88694E"/>
<path fill-rule="evenodd" clip-rule="evenodd" d="M330.493 215.851C330.945 217.086 331.722 218.121 332.824 218.957C333.215 220.408 333.043 221.788 332.306 223.098C328.469 225.87 326.31 224.921 325.831 220.251C325.632 218.831 326.15 217.883 327.385 217.404C328.248 217.404 329.111 217.404 329.975 217.404C329.852 216.736 330.025 216.218 330.493 215.851Z" fill="#7A604C"/>
<path fill-rule="evenodd" clip-rule="evenodd" d="M328.421 218.439C329.511 217.756 330.547 217.929 331.529 218.957C332.694 222.348 331.486 223.814 327.903 223.357C327.046 222.609 326.7 221.66 326.867 220.51C328.457 220.41 328.975 219.719 328.421 218.439Z" fill="#8D6B4D"/>
<path fill-rule="evenodd" clip-rule="evenodd" d="M359.503 243.285C359.503 244.666 359.503 246.046 359.503 247.426C356.794 249.603 354.118 251.847 351.473 254.155C349.917 255.889 348.621 257.787 347.588 259.849C346.897 259.849 346.552 259.504 346.552 258.814C346.897 258.124 347.242 257.434 347.588 256.744C348.35 255.855 348.868 254.82 349.142 253.638C353.128 250.69 356.581 247.239 359.503 243.285Z" fill="#5B5A56"/>
<path fill-rule="evenodd" clip-rule="evenodd" d="M341.372 254.155C341.032 254.558 340.6 254.903 340.077 255.191C338.302 254.965 336.748 254.275 335.414 253.12C335.155 253.293 334.896 253.465 334.637 253.638C336.013 254.67 337.567 255.446 339.3 255.967C339.99 256.312 339.99 256.657 339.3 257.002C339.685 257.54 340.203 257.799 340.854 257.779C340.007 258.121 339.058 258.293 338.004 258.296C333.801 257.728 330.951 255.398 329.457 251.308C334.067 248.962 338.039 249.911 341.372 254.155Z" fill="#7A7D65"/>
<path fill-rule="evenodd" clip-rule="evenodd" d="M341.372 254.155C344.017 255.575 346.607 255.402 349.142 253.638C348.868 254.82 348.35 255.855 347.588 256.744C345.386 257.339 343.314 258.546 341.372 260.367C340.053 259.034 338.672 259.034 337.227 260.367C336.502 260.056 335.984 259.539 335.673 258.814C337.753 258.9 339.825 258.814 341.89 258.555C343.073 257.227 342.727 256.968 340.854 257.779C340.203 257.799 339.685 257.54 339.3 257.002C339.99 256.657 339.99 256.312 339.3 255.967C337.567 255.446 336.013 254.67 334.637 253.638C334.896 253.465 335.155 253.293 335.414 253.12C336.748 254.275 338.302 254.965 340.077 255.191C340.6 254.903 341.032 254.558 341.372 254.155Z" fill="#6B6A60"/>
<path fill-rule="evenodd" clip-rule="evenodd" d="M333.083 259.332C333.818 258.839 334.681 258.667 335.673 258.814C335.984 259.539 336.502 260.056 337.227 260.367C336.143 260.649 335.107 261.08 334.119 261.661C332.943 263.101 331.562 264.223 329.975 265.026C328.755 265.582 327.546 265.582 326.349 265.026C328.34 262.046 331.103 260.234 334.637 259.59C334.146 259.34 333.628 259.255 333.083 259.332Z" fill="#9A9E82"/>
<path fill-rule="evenodd" clip-rule="evenodd" d="M341.372 260.367C340.38 260.22 339.517 260.392 338.781 260.885C337.478 261.017 336.269 261.448 335.155 262.179C332.586 264.278 330.083 266.435 327.644 268.649C327.385 268.563 327.126 268.477 326.867 268.39C327.323 268.024 327.668 267.592 327.903 267.096C328.766 266.579 329.457 265.889 329.975 265.026C331.562 264.223 332.943 263.101 334.119 261.661C335.107 261.08 336.143 260.649 337.227 260.367C338.672 259.034 340.053 259.034 341.372 260.367Z" fill="#515841"/>
<path fill-rule="evenodd" clip-rule="evenodd" d="M333.083 259.332C333.628 259.255 334.146 259.34 334.637 259.59C331.103 260.234 328.34 262.046 326.349 265.026C327.546 265.582 328.755 265.582 329.975 265.026C329.457 265.888 328.766 266.578 327.903 267.096C327.023 267.013 326.159 267.099 325.313 267.355C326.189 268.08 326.535 269.029 326.349 270.202C325.804 270.279 325.286 270.193 324.795 269.943C325.514 269.483 325.428 269.224 324.536 269.167C323.355 269.371 323.096 269.888 323.759 270.719C323.3 271.38 322.782 271.38 322.205 270.719C323.368 268.221 324.663 265.806 326.09 263.473C327.98 261.32 330.311 259.939 333.083 259.332Z" fill="#7C7F69"/>
<path fill-rule="evenodd" clip-rule="evenodd" d="M338.782 260.885C339.008 260.851 339.181 260.937 339.3 261.143C338.372 263.513 337.163 265.756 335.673 267.873C333.926 268.453 332.286 269.229 330.752 270.202C329.481 269.688 328.186 269.601 326.867 269.943C327.155 270.141 327.327 270.4 327.385 270.72C326.176 270.72 324.967 270.72 323.759 270.72C323.096 269.888 323.355 269.371 324.536 269.167C325.428 269.224 325.514 269.483 324.795 269.943C325.286 270.193 325.804 270.279 326.349 270.202C326.535 269.029 326.189 268.08 325.313 267.355C326.159 267.099 327.023 267.013 327.903 267.096C327.668 267.592 327.323 268.024 326.867 268.39C327.126 268.477 327.385 268.563 327.644 268.649C330.083 266.435 332.586 264.278 335.155 262.179C336.269 261.448 337.478 261.017 338.782 260.885Z" fill="#8F9377"/>
<path fill-rule="evenodd" clip-rule="evenodd" d="M338.781 260.885C339.517 260.392 340.38 260.22 341.372 260.367C339.808 263.573 337.909 266.592 335.673 269.425C333.034 270.552 330.271 270.984 327.385 270.72C327.327 270.4 327.155 270.141 326.867 269.943C328.186 269.601 329.481 269.688 330.752 270.202C332.286 269.229 333.926 268.453 335.673 267.873C337.163 265.756 338.372 263.513 339.3 261.143C339.181 260.937 339.008 260.851 338.781 260.885Z" fill="#767B67"/>
<path fill-rule="evenodd" clip-rule="evenodd" d="M346.552 258.814C346.552 259.504 346.897 259.849 347.588 259.849C346.589 261.675 345.725 263.573 344.998 265.543C345.373 266.251 345.719 266.941 346.034 267.614C346.119 269.005 346.032 270.385 345.775 271.755C345.519 270.909 345.433 270.046 345.516 269.167C344.971 269.09 344.453 269.175 343.962 269.425C343.121 270.502 342.344 271.623 341.631 272.79C341.458 272.445 341.285 272.1 341.113 271.755C339.981 273.057 338.859 274.351 337.745 275.637C338.977 276.141 338.804 276.486 337.227 276.672C337.4 276.845 337.573 277.018 337.745 277.19C337.09 278.737 336.399 280.204 335.673 281.59C335.713 279.324 335.972 277.081 336.45 274.861C338.27 271.915 340.342 269.154 342.667 266.579C343.431 263.677 344.726 261.089 346.552 258.814Z" fill="#757866"/>
<path fill-rule="evenodd" clip-rule="evenodd" d="M346.034 267.614C346.724 270.374 346.724 273.135 346.034 275.896C346.118 274.847 346.031 273.811 345.775 272.79C345.61 273.598 345.179 274.202 344.48 274.602C344.742 277.818 343.965 280.837 342.149 283.66C341.553 281.963 341.122 280.237 340.854 278.484C341.1 276.71 341.1 274.985 340.854 273.308C340.131 276.73 339.613 280.181 339.3 283.66C338.652 283.7 338.22 284.045 338.004 284.695C337.975 283.448 337.37 282.757 336.191 282.625C336.019 282.28 335.846 281.935 335.673 281.59C336.399 280.204 337.09 278.737 337.745 277.19C337.573 277.018 337.4 276.845 337.227 276.672C338.804 276.486 338.977 276.141 337.745 275.637C338.859 274.351 339.981 273.057 341.113 271.755C341.285 272.1 341.458 272.445 341.631 272.79C342.344 271.623 343.121 270.502 343.962 269.425C344.453 269.175 344.971 269.09 345.516 269.167C345.433 270.046 345.519 270.909 345.775 271.755C346.032 270.385 346.119 269.005 346.034 267.614Z" fill="#8C9174"/>
<path fill-rule="evenodd" clip-rule="evenodd" d="M340.854 278.484C340.509 280.307 340.163 282.204 339.818 284.178C339.503 284.114 339.331 283.941 339.3 283.66C339.613 280.181 340.131 276.73 340.854 273.308C341.1 274.985 341.1 276.71 340.854 278.484Z" fill="#585F4A"/>
<path fill-rule="evenodd" clip-rule="evenodd" d="M346.034 275.896C345.942 277.302 345.683 278.682 345.257 280.037C343.757 283.553 342.116 287.004 340.336 290.389C337.784 288.444 336.403 285.856 336.191 282.625C337.37 282.757 337.975 283.448 338.004 284.695C338.22 284.045 338.652 283.7 339.3 283.66C339.331 283.941 339.503 284.114 339.818 284.178C340.163 282.204 340.509 280.307 340.854 278.484C341.122 280.237 341.553 281.963 342.149 283.66C343.965 280.837 344.742 277.818 344.48 274.602C345.179 274.202 345.61 273.598 345.775 272.79C346.031 273.811 346.118 274.847 346.034 275.896Z" fill="#7C8168"/>
</svg>
