<svg width="334" height="306" viewBox="0 0 334 306" fill="none" xmlns="http://www.w3.org/2000/svg">
<path fill-rule="evenodd" clip-rule="evenodd" d="M26.4195 1.37554C25.9029 1.36001 25.5575 1.61882 25.3834 2.15198C25.942 3.59875 26.201 5.06571 26.1604 6.55182C25.5523 5.12679 24.6026 4.60916 23.3113 4.99894C23.6567 5.34419 24.002 5.68893 24.3473 6.03419C23.3422 8.49189 22.8241 11.08 22.7933 13.7986C22.2483 13.8757 21.7303 13.7898 21.2392 13.5398C21.9935 13.3208 22.2525 12.8897 22.0162 12.2457C21.2342 12.5511 20.4572 12.8959 19.6851 13.281C20.2495 13.855 20.2495 14.3727 19.6851 14.8339C19.141 12.8219 19.4864 10.9242 20.7211 9.13996C21.1485 8.68134 21.6665 8.50897 22.2752 8.62233C22.2483 7.37847 22.421 6.17085 22.7933 4.99894C22.8432 3.21001 23.3613 1.57068 24.3473 0.0814675C25.443 -0.195981 26.1337 0.235203 26.4195 1.37554Z" fill="#8A8F74"/>
<path fill-rule="evenodd" clip-rule="evenodd" d="M72.5241 18.9749C72.0309 18.4821 71.5129 17.9645 70.97 17.422C71.4238 17.0333 71.9418 16.7745 72.5241 16.6456C71.6776 16.3899 70.8141 16.304 69.9339 16.3868C69.8459 17.0711 70.0184 17.6752 70.452 18.1985C69.5345 19.2922 68.7575 19.2063 68.1208 17.9397C64.6671 19.3202 62.25 21.7354 60.8684 25.1865C60.6281 24.879 60.5416 24.5337 60.6094 24.1512C60.9057 23.2428 61.3378 22.3799 61.9045 21.5631C65.5385 17.98 69.7692 15.3919 74.5962 13.7986C74.4087 15.7444 73.7181 17.4702 72.5241 18.9749Z" fill="#797D6B"/>
<path fill-rule="evenodd" clip-rule="evenodd" d="M26.4195 1.37554C29.4162 9.10269 28.2074 16.0042 22.7933 22.0807C22.2329 21.5144 21.8876 20.8244 21.7572 20.0102C22.2757 18.4666 22.5347 16.9137 22.5343 15.3515C21.6569 17.6865 20.7072 19.9294 19.6851 22.0807C16.4842 15.6641 17.5203 9.97024 22.7933 4.99893C22.421 6.17084 22.2483 7.37847 22.2752 8.62233C21.6666 8.50897 21.1485 8.68134 20.7212 9.13996C19.4864 10.9242 19.1411 12.8218 19.6851 14.8339C20.2495 14.3727 20.2495 13.855 19.6851 13.281C20.4572 12.8959 21.2343 12.5511 22.0162 12.2457C22.2525 12.8897 21.9935 13.3208 21.2392 13.5398C21.7303 13.7898 22.2483 13.8757 22.7933 13.7986C22.8241 11.08 23.3422 8.49189 24.3474 6.03419C24.002 5.68893 23.6567 5.34419 23.3113 4.99893C24.6026 4.60916 25.5523 5.12679 26.1605 6.55182C26.201 5.06571 25.942 3.59875 25.3834 2.15198C25.5575 1.61882 25.9029 1.36001 26.4195 1.37554Z" fill="#7B7F67"/>
<path fill-rule="evenodd" clip-rule="evenodd" d="M72.524 18.9749C72.3515 19.3202 72.1785 19.6649 72.006 20.0102C71.3735 19.7369 70.7695 19.3916 70.1929 18.9749C67.8229 22.015 64.9738 24.5167 61.6454 26.4805C60.9383 26.4065 60.2478 26.1477 59.5733 25.7041C59.7971 25.0778 60.1426 24.5601 60.6094 24.1512C60.5415 24.5337 60.628 24.879 60.8684 25.1865C62.25 21.7354 64.6671 19.3202 68.1208 17.9397C68.7574 19.2063 69.5345 19.2922 70.4519 18.1985C70.0183 17.6752 69.8458 17.0711 69.9339 16.3868C70.814 16.304 71.6776 16.3899 72.524 16.6456C71.9418 16.7745 71.4237 17.0333 70.9699 17.4221C71.5128 17.9645 72.0309 18.4822 72.524 18.9749Z" fill="#94997D"/>
<path fill-rule="evenodd" clip-rule="evenodd" d="M54.3931 35.539C54.3843 36.33 54.0387 36.5888 53.357 36.3155C54.0558 35.4692 53.9693 34.6927 53.098 33.9862C52.9892 34.7926 52.7302 35.4826 52.3209 36.0567C52.3904 35.1291 52.2179 34.2667 51.8029 33.4685C53.2663 32.9623 53.9569 31.927 53.875 30.3628C54.391 30.4073 54.8225 30.2344 55.1701 29.8451C55.8207 26.5592 54.6982 24.1435 51.8029 22.5983C51.9084 23.131 51.6494 23.6486 51.0259 24.1512C50.8532 23.806 50.6805 23.4612 50.5078 23.116C50.2496 25.0063 50.1632 26.904 50.2488 28.8099C49.9035 26.9117 49.5581 25.0141 49.2128 23.116C49.2128 22.0807 49.2128 21.0454 49.2128 20.0102C50.775 20.1867 52.1562 20.7903 53.357 21.8219C56.2947 24.1667 57.2443 27.1861 56.2062 30.8804C55.3043 32.3344 54.6997 33.8873 54.3931 35.539Z" fill="#747665"/>
<path fill-rule="evenodd" clip-rule="evenodd" d="M72.006 20.0102C71.4652 22.6459 70.2566 24.8888 68.3798 26.7393C67.9115 26.3723 67.739 25.8547 67.8618 25.1865C69.1268 25.262 69.4723 24.8308 68.8978 23.8924C66.5496 23.47 65.082 24.4188 64.4946 26.7393C64.3221 26.567 64.1491 26.3941 63.9766 26.2217C63.7776 27.1001 63.8636 27.9625 64.2356 28.8099C61.7801 28.9134 59.8805 29.9486 58.5373 31.9156C58.5373 31.5704 58.3648 31.398 58.0192 31.398C58.2399 29.3653 58.7579 27.4676 59.5733 25.7041C60.2478 26.1477 60.9383 26.4065 61.6454 26.4805C64.9738 24.5166 67.8229 22.0149 70.1929 18.9749C70.7695 19.3916 71.3735 19.7369 72.006 20.0102Z" fill="#737762"/>
<path fill-rule="evenodd" clip-rule="evenodd" d="M53.875 30.3628C53.8009 29.0185 53.3689 27.8103 52.5799 26.7394C52.2986 28.4827 52.3851 30.208 52.8389 31.9156C51.2488 31.531 50.3854 30.4958 50.2488 28.8099C50.1631 26.904 50.2495 25.0063 50.5078 23.116C50.6804 23.4612 50.8532 23.806 51.0258 24.1512C51.6493 23.6486 51.9083 23.131 51.8029 22.5983C54.6981 24.1434 55.8207 26.5592 55.17 29.8451C54.8224 30.2344 54.3909 30.4073 53.875 30.3628Z" fill="#86896D"/>
<path fill-rule="evenodd" clip-rule="evenodd" d="M12.9507 25.7041C12.0223 26.1228 10.9862 26.3816 9.84251 26.4805C9.36178 26.6813 9.01646 27.0266 8.80645 27.5158C10.5726 30.3958 13.1628 31.8623 16.5769 31.9156C16.5769 32.088 16.5769 32.2608 16.5769 32.4332C14.6499 32.4001 12.7505 32.1413 10.8786 31.6568C9.38582 29.7969 7.83173 27.9852 6.21631 26.2217C8.45031 25.1171 10.6951 24.9447 12.9507 25.7041Z" fill="#727461"/>
<path fill-rule="evenodd" clip-rule="evenodd" d="M68.3798 26.7393C67.3028 27.9676 65.9212 28.6576 64.2356 28.8098C63.8636 27.9624 63.7776 27.1001 63.9766 26.2216C64.1491 26.394 64.3221 26.5669 64.4946 26.7393C65.082 24.4187 66.5496 23.4699 68.8978 23.8923C69.4723 24.8308 69.1268 25.262 67.8618 25.1864C67.739 25.8546 67.9115 26.3723 68.3798 26.7393Z" fill="#8B8E79"/>
<path fill-rule="evenodd" clip-rule="evenodd" d="M12.9507 25.704C14.7799 26.7802 16.5067 27.9878 18.131 29.3274C18.0689 29.8896 17.7235 30.2348 17.095 30.3627C15.8213 29.8119 14.6126 29.1214 13.4688 28.2922C13.2961 28.4646 13.1234 28.6374 12.9507 28.8098C14.1696 29.857 15.3783 30.8922 16.577 31.9156C13.1628 31.8623 10.5727 30.3958 8.80652 27.5157C9.01653 27.0266 9.36185 26.6813 9.84258 26.4805C10.9863 26.3816 12.0223 26.1228 12.9507 25.704Z" fill="#8C8F76"/>
<path fill-rule="evenodd" clip-rule="evenodd" d="M22.7932 22.0807C21.4175 24.8298 20.0361 27.5908 18.649 30.3627C18.8281 30.9818 19.0871 30.9818 19.426 30.3627C20.2086 29.1401 20.9856 27.9325 21.7572 26.7393C22.4046 26.7792 22.8363 27.1244 23.0522 27.7746C24.4281 26.4143 25.8959 26.1554 27.4555 26.9981C25.4997 27.7161 23.6002 28.579 21.7572 29.5863C20.6657 30.2406 20.1477 31.1894 20.2031 32.4332C19.5124 32.9509 18.8217 33.4685 18.131 33.9861C17.5565 33.9566 17.0384 33.7842 16.5769 33.4685C16.5769 33.1232 16.5769 32.7785 16.5769 32.4332C16.5769 32.2609 16.5769 32.088 16.5769 31.9156C15.3783 30.8923 14.1695 29.857 12.9507 28.8098C13.1233 28.6375 13.2961 28.4646 13.4687 28.2922C14.6125 29.1214 15.8212 29.812 17.0949 30.3627C17.7234 30.2349 18.0688 29.8896 18.131 29.3275C19.2671 27.0525 19.7851 24.6367 19.6851 22.0807C20.7071 19.9294 21.6568 17.6865 22.5342 15.3515C22.5347 16.9137 22.2757 18.4666 21.7572 20.0102C21.8876 20.8244 22.2329 21.5144 22.7932 22.0807Z" fill="#5B5D50"/>
<path fill-rule="evenodd" clip-rule="evenodd" d="M20.2031 32.4332C20.1477 31.1893 20.6657 30.2405 21.7572 29.5862C23.6002 28.5789 25.4997 27.7161 27.4555 26.9981C25.8959 26.1554 24.4282 26.4142 23.0523 27.7745C22.8363 27.1244 22.4046 26.7792 21.7572 26.7393C22.3401 25.8961 23.0308 25.1196 23.8293 24.41C35.1151 20.5102 36.4965 22.5807 27.9735 30.6215C25.3685 31.1836 22.7783 31.7877 20.2031 32.4332Z" fill="#848770"/>
<path fill-rule="evenodd" clip-rule="evenodd" d="M71.488 28.2922C72.1625 29.0303 72.9395 29.7203 73.8191 30.3627C75.7778 28.9858 76.9004 29.3311 77.1863 31.3979C77.679 30.9704 78.197 30.8845 78.7404 31.1391C77.8339 31.8219 76.7978 32.0807 75.6322 31.9156C73.0193 32.0848 70.4292 31.9125 67.8618 31.3979C68.7285 30.577 69.7645 30.2317 70.97 30.3627C70.97 29.8451 70.97 29.3274 70.97 28.8098C70.97 28.4645 71.1425 28.2922 71.488 28.2922Z" fill="#8C9173"/>
<path fill-rule="evenodd" clip-rule="evenodd" d="M49.2127 23.1159C49.5581 25.014 49.9034 26.9117 50.2488 28.8098C50.3854 30.4957 51.2488 31.531 52.8389 31.9156C52.3851 30.2079 52.2986 28.4827 52.5799 26.7393C53.3689 27.8103 53.8009 29.0184 53.875 30.3627C53.9568 31.927 53.2663 32.9622 51.8029 33.4685C49.0182 30.4745 48.1549 27.024 49.2127 23.1159Z" fill="#555748"/>
<path fill-rule="evenodd" clip-rule="evenodd" d="M70.9699 28.8099C70.9699 29.3275 70.9699 29.8451 70.9699 30.3628C69.7645 30.2318 68.7284 30.5771 67.8618 31.398C70.4291 31.9125 73.0193 32.0849 75.6322 31.9156C75.8487 32.2894 76.1938 32.5482 76.6683 32.6921C76.3606 32.9323 76.015 33.0187 75.6322 32.9509C72.5075 32.8484 69.3993 33.0208 66.3077 33.4685C65.7897 33.2962 65.2716 33.1233 64.7536 32.9509C65.6172 32.6056 66.4802 32.2609 67.3437 31.9156C66.9588 31.5626 66.6138 31.2174 66.3077 30.8804C67.7986 30.0496 69.3527 29.3591 70.9699 28.8099Z" fill="#616551"/>
<path fill-rule="evenodd" clip-rule="evenodd" d="M66.3077 35.539C67.3966 35.2243 68.5191 35.0514 69.6749 35.0213C70.5918 36.0142 71.7143 36.273 73.0421 35.7978C74.5485 35.4411 75.9301 34.8376 77.1863 33.9861C76.6154 33.6362 76.0974 33.2914 75.6322 32.9508C76.015 33.0186 76.3605 32.9322 76.6683 32.692C76.1937 32.5481 75.8487 32.2893 75.6322 31.9156C76.7978 32.0807 77.8338 31.8219 78.7404 31.1391C78.197 30.8845 77.6789 30.9704 77.1863 31.398C76.9003 29.3311 75.7778 28.9858 73.8191 30.3627C72.9395 29.7203 72.1624 29.0303 71.488 28.2922C73.5653 27.6006 75.6374 27.6866 77.7043 28.551C79.1175 29.7892 80.6716 30.8244 82.3666 31.6568C83.1628 32.2313 83.5078 33.0078 83.4026 33.9861C82.0107 33.9012 80.6291 33.9876 79.2584 34.2449C76.8247 35.6591 74.2346 36.6079 71.488 37.0919C69.622 36.9873 67.8954 36.4697 66.3077 35.539Z" fill="#7B7E69"/>
<path fill-rule="evenodd" clip-rule="evenodd" d="M66.3077 30.8803C66.6138 31.2173 66.9588 31.5625 67.3437 31.9156C66.4802 32.2608 65.6171 32.6056 64.7536 32.9508C65.2716 33.1232 65.7896 33.2961 66.3077 33.4685C69.3993 33.0207 72.5074 32.8483 75.6322 32.9508C76.0974 33.2914 76.6154 33.6362 77.1863 33.9861C75.93 34.8376 74.5485 35.4411 73.042 35.7978C71.7143 36.273 70.5918 36.0141 69.6748 35.0213C68.5191 35.0514 67.3966 35.2242 66.3077 35.539C64.2604 35.1394 62.1883 34.967 60.0913 35.0213C61.1952 34.6 62.4038 34.3412 63.7175 34.2449C63.0669 34.029 62.7213 33.5979 62.6815 32.9508C63.7874 32.1376 64.996 31.4476 66.3077 30.8803Z" fill="#8B8E77"/>
<path fill-rule="evenodd" clip-rule="evenodd" d="M16.5769 33.4685C17.0385 33.7843 17.5565 33.9566 18.131 33.9861C15.8043 36.9035 13.4731 39.8369 11.1376 42.7858C9.74162 46.1928 8.61921 49.6439 7.77042 53.1384C7.85439 52.0891 7.76809 51.0539 7.5114 50.0326C7.50716 51.5053 6.90277 52.5405 5.6983 53.1384C6.25223 49.0962 7.5473 45.3005 9.58352 41.7506C12.0391 39.0428 14.3703 36.2823 16.5769 33.4685Z" fill="#5F5D59"/>
<path fill-rule="evenodd" clip-rule="evenodd" d="M58.0193 31.398C58.3648 31.398 58.5373 31.5704 58.5373 31.9156C58.1555 32.85 57.6375 33.7123 56.9832 34.5038C57.1557 34.6761 57.3287 34.849 57.5012 35.0214C59.0227 33.8241 60.7493 33.1341 62.6815 32.9509C62.7214 33.5979 63.0669 34.0291 63.7176 34.245C62.4039 34.3412 61.1953 34.6001 60.0914 35.0214C57.6401 35.9443 55.4814 37.3243 53.616 39.1624C49.8718 43.9143 46.8499 49.0905 44.5505 54.6913C43.9031 54.7311 43.4714 55.0764 43.2554 55.7265C43.0016 55.0572 42.9152 54.3667 42.9964 53.656C45.0091 48.7706 47.6855 44.2844 51.0259 40.1977C51.6188 38.8622 52.0504 37.4817 52.3209 36.0567C52.7302 35.4826 52.9892 34.7926 53.098 33.9862C53.9693 34.6927 54.0558 35.4692 53.357 36.3155C54.0387 36.5888 54.3842 36.33 54.3931 35.539C55.6016 34.1585 56.8107 32.7785 58.0193 31.398Z" fill="#53514D"/>
<path fill-rule="evenodd" clip-rule="evenodd" d="M26.4195 57.2794C26.0741 57.2794 25.7288 57.2794 25.3834 57.2794C27.3136 52.4235 25.7595 50.4395 20.7212 51.3267C18.4444 56.0542 19.9985 58.2111 25.3834 57.797C24.1154 58.3007 22.7339 58.4731 21.2392 58.3147C20.2284 57.9099 19.4513 57.2194 18.9081 56.2442C18.1605 53.8051 18.7648 51.821 20.7212 50.2914C26.3695 49.5916 28.2689 51.9209 26.4195 57.2794Z" fill="#67523F"/>
<path fill-rule="evenodd" clip-rule="evenodd" d="M25.3834 57.2794C25.3834 57.4517 25.3834 57.6246 25.3834 57.797C19.9985 58.2111 18.4444 56.0541 20.7212 51.3266C25.7595 50.4394 27.3135 52.4235 25.3834 57.2794Z" fill="#8B6B4A"/>
<path fill-rule="evenodd" clip-rule="evenodd" d="M7.77043 53.1384C7.77043 53.8284 7.77043 54.5189 7.77043 55.2089C7.34321 57.3555 7.0842 59.5989 6.99339 61.938C6.82073 59.3499 6.64802 56.7618 6.47536 54.1736C6.3027 55.2089 6.12999 56.2441 5.95733 57.2794C5.69966 55.9097 5.61331 54.5292 5.69832 53.1384C6.90278 52.5405 7.50717 51.5052 7.51142 50.0326C7.7681 51.0539 7.8544 52.0891 7.77043 53.1384Z" fill="#454240"/>
<path fill-rule="evenodd" clip-rule="evenodd" d="M5.69833 53.1384C5.61332 54.5292 5.69968 55.9097 5.95735 57.2794C6.13001 56.2441 6.30272 55.2089 6.47538 54.1736C6.64803 56.7618 6.82075 59.3499 6.9934 61.938C7.08422 59.5989 7.34323 57.3555 7.77045 55.2089C7.5751 60.4312 7.92047 65.6075 8.80651 70.7377C8.43477 69.8339 7.91674 69.4892 7.25242 69.7025C7.87711 68.6589 7.87711 67.6237 7.25242 66.5967C6.91099 67.9731 6.04764 68.836 4.66227 69.1848C3.79411 68.5492 3.62143 67.8592 4.14425 67.1143C4.64071 67.3488 5.0724 67.6936 5.43932 68.1496C5.52567 67.7184 5.61198 67.2867 5.69833 66.8555C5.03705 62.2046 5.03705 57.6324 5.69833 53.1384Z" fill="#6C6B67"/>
<path fill-rule="evenodd" clip-rule="evenodd" d="M52.8389 71.2553C52.6664 71.2553 52.4934 71.2553 52.3209 71.2553C52.0971 70.629 51.7517 70.1114 51.2848 69.7024C51.0706 65.1675 53.143 63.3558 57.5012 64.2674C60.5969 65.5837 61.374 67.7406 59.8323 70.7377C57.6317 73.285 55.3006 73.4573 52.8389 71.2553Z" fill="#7D6752"/>
<path fill-rule="evenodd" clip-rule="evenodd" d="M52.8389 71.2553C52.0676 69.3179 52.1541 67.4197 53.098 65.5614C53.2575 65.9797 53.5165 66.3249 53.875 66.5967C55.8435 64.5288 57.5701 64.6152 59.0553 66.8555C57.8006 67.9487 57.8006 68.984 59.0553 69.9613C58.731 70.3495 58.472 70.7812 58.2782 71.2553C56.4828 71.8853 54.6697 71.8853 52.8389 71.2553Z" fill="#876545"/>
<path fill-rule="evenodd" clip-rule="evenodd" d="M0 61.938C1.56248 63.5013 2.9439 65.2271 4.14423 67.1143C3.62142 67.8592 3.79409 68.5492 4.66226 69.1848C6.04762 68.836 6.91097 67.9731 7.2524 66.5967C7.87709 67.6237 7.87709 68.6589 7.2524 69.7025C7.91672 69.4892 8.43475 69.8339 8.80649 70.7377C11.5124 76.6635 14.6205 82.3574 18.131 87.8195C17.4831 89.1819 16.9651 90.5624 16.5769 91.9605C13.6768 85.8219 10.4823 79.7833 6.99339 73.8435C4.73187 71.1544 2.40074 68.5663 0 66.0791C0 64.6986 0 63.3186 0 61.938Z" fill="#54514E"/>
<path fill-rule="evenodd" clip-rule="evenodd" d="M42.9964 53.656C42.9152 54.3667 43.0016 55.0572 43.2554 55.7265C43.4714 55.0764 43.9031 54.7311 44.5505 54.6913C43.1579 56.5263 42.2082 58.5968 41.7013 60.9028C40.4222 65.3244 39.4725 69.8107 38.8522 74.3611C38.1526 76.148 37.8936 78.0461 38.0751 80.055C38.6845 79.1771 39.2889 78.3148 39.8882 77.4669C43.1274 74.0578 46.9262 71.4697 51.2849 69.7025C51.7518 70.1114 52.0971 70.629 52.3209 71.2554C46.2696 73.1685 41.6073 76.7919 38.3341 82.1256C38.4116 81.581 38.3252 81.0634 38.0751 80.5727C37.9025 80.745 37.7298 80.9179 37.5571 81.0903C36.6185 80.0281 35.9278 78.8205 35.485 77.4669C35.3762 78.2734 35.1172 78.9634 34.7079 79.5374C34.9264 74.7582 33.6313 70.4448 30.8227 66.5967C28.8533 64.3994 27.2129 61.9836 25.9015 59.3499C24.274 59.0047 22.7199 58.6594 21.2392 58.3147C22.7339 58.4731 24.1153 58.3007 25.3834 57.797C25.3834 57.6247 25.3834 57.4518 25.3834 57.2794C25.7288 57.2794 26.0741 57.2794 26.4195 57.2794C28.7839 61.1347 31.2877 64.9305 33.9309 68.6672C35.1104 71.3392 35.9737 74.1002 36.521 76.9493C37.4131 71.5727 38.4492 66.2235 39.6292 60.9028C40.6128 58.3685 41.7351 55.9527 42.9964 53.656Z" fill="#605E5C"/>
<path fill-rule="evenodd" clip-rule="evenodd" d="M58.0192 81.6079C56.6014 81.5567 55.2198 81.7296 53.875 82.1256C54.3889 81.3357 55.1659 80.9904 56.2061 81.0903C56.9236 81.0975 57.5276 81.2704 58.0192 81.6079Z" fill="#938C85"/>
<path fill-rule="evenodd" clip-rule="evenodd" d="M58.0192 81.6079C61.0818 82.9853 61.8589 85.2282 60.3504 88.3371C57.1997 91.2782 54.5231 90.933 52.3209 87.3018C52.3209 86.7842 52.3209 86.2666 52.3209 85.7489C51.8029 85.7489 51.2849 85.7489 50.7668 85.7489C51.8023 84.5646 52.8384 83.357 53.875 82.1255C55.2198 81.7296 56.6014 81.5567 58.0192 81.6079Z" fill="#6E5C4A"/>
<path fill-rule="evenodd" clip-rule="evenodd" d="M54.393 82.6432C57.4069 81.8507 59.306 82.886 60.0913 85.749C59.9111 86.8862 59.393 87.835 58.5373 88.5959C52.9306 89.3693 51.5491 87.3847 54.393 82.6432Z" fill="#8E6C4D"/>
<path fill-rule="evenodd" clip-rule="evenodd" d="M38.3341 82.1255C37.5177 83.8988 36.5679 85.6246 35.485 87.3017C34.6845 91.1456 33.5621 94.855 32.1178 98.4307C32.154 98.8267 32.3267 99.0855 32.6358 99.2072C33.1041 99.5742 33.2768 100.092 33.1538 100.76C32.1118 102.063 31.1621 103.443 30.3047 104.901C29.5664 108.061 28.4441 110.994 26.9375 113.701C27.0149 113.156 26.9286 112.639 26.6785 112.148C25.3168 116.171 24.6261 120.312 24.6064 124.571C24.4337 121.81 24.261 119.049 24.0883 116.289C23.9936 117.772 23.7346 119.152 23.3113 120.43C23.7128 116.613 24.4898 112.817 25.6424 109.042C30.3442 99.7434 33.3661 89.9085 34.7079 79.5373C35.1172 78.9633 35.3762 78.2733 35.485 77.4668C35.9278 78.8204 36.6185 80.028 37.5571 81.0902C37.7297 80.9178 37.9024 80.7449 38.0751 80.5726C38.3252 81.0633 38.4116 81.5809 38.3341 82.1255Z" fill="#54524F"/>
<path fill-rule="evenodd" clip-rule="evenodd" d="M50.7668 85.749C51.2848 85.749 51.8029 85.749 52.3209 85.749C52.3209 86.2667 52.3209 86.7843 52.3209 87.3019C44.6163 89.8621 38.2272 94.3484 33.1538 100.76C33.2768 100.092 33.1041 99.5744 32.6358 99.2074C37.5213 93.1118 43.565 88.6255 50.7668 85.749Z" fill="#676563"/>
<path fill-rule="evenodd" clip-rule="evenodd" d="M77.1863 104.384C76.5061 103.025 75.6426 101.731 74.5962 100.501C72.6038 99.9026 71.1362 100.506 70.1929 102.313C69.9702 103.707 70.0567 105.087 70.4519 106.454C69.305 105.992 68.787 105.13 68.8978 103.866C69.6075 99.7783 71.8522 98.4843 75.6322 99.9838C77.322 101.174 77.84 102.641 77.1863 104.384Z" fill="#6D5745"/>
<path fill-rule="evenodd" clip-rule="evenodd" d="M19.6851 94.031C19.6851 96.1015 19.6851 98.172 19.6851 100.243C19.6851 101.105 19.6851 101.968 19.6851 102.831C18.9944 102.831 18.3037 102.831 17.613 102.831C17.529 101.781 17.6153 100.746 17.872 99.7249C18.0011 100.307 18.2601 100.824 18.649 101.278C18.8217 101.105 18.9944 100.933 19.1671 100.76C18.5212 99.962 18.5212 99.1855 19.1671 98.4308C18.5226 98.1948 18.0909 98.4536 17.872 99.2073C17.5266 97.9997 17.5266 96.7915 17.872 95.5839C18.0446 95.9291 18.2174 96.2739 18.39 96.6191C18.4157 95.4576 18.8474 94.5947 19.6851 94.031Z" fill="#4D4A47"/>
<path fill-rule="evenodd" clip-rule="evenodd" d="M77.1863 104.383C77.2754 104.897 77.1023 105.242 76.6682 105.419C76.7019 105.192 76.6159 105.019 76.4092 104.901C75.0903 106.739 73.2772 107.429 70.9699 106.972C70.6244 106.972 70.4519 106.799 70.4519 106.454C70.0566 105.087 69.9701 103.706 70.1929 102.313C71.1362 100.506 72.6038 99.9024 74.5961 100.501C75.6425 101.731 76.5061 103.025 77.1863 104.383Z" fill="#8B6A4C"/>
<path fill-rule="evenodd" clip-rule="evenodd" d="M18.131 87.8196C18.9218 89.7695 19.4398 91.84 19.6851 94.0311C18.8474 94.5948 18.4157 95.4577 18.39 96.6193C18.2173 96.274 18.0446 95.9293 17.872 95.584C17.5266 96.7916 17.5266 97.9998 17.872 99.2074C18.0909 98.4537 18.5226 98.1949 19.167 98.431C18.5212 99.1857 18.5212 99.9621 19.167 100.76C18.9944 100.933 18.8217 101.106 18.649 101.278C18.2601 100.824 18.0011 100.307 17.872 99.725C17.6153 100.746 17.529 101.782 17.613 102.831C18.3036 102.831 18.9944 102.831 19.6851 102.831C19.6851 101.968 19.6851 101.106 19.6851 100.243C19.5766 105.861 19.7492 111.555 20.2031 117.324C19.5051 117.598 18.8144 117.684 18.131 117.583C18.667 116.803 18.5807 116.027 17.872 115.254C17.6219 115.745 17.5355 116.262 17.613 116.807C17.2527 108.591 16.9074 100.309 16.5769 91.9606C16.9651 90.5625 17.4831 89.182 18.131 87.8196Z" fill="#605F5C"/>
<path fill-rule="evenodd" clip-rule="evenodd" d="M76.6683 105.419C76.6626 106.204 76.3176 106.808 75.6323 107.23C74.447 107.656 73.2379 108.001 72.0061 108.266C71.199 109.328 70.5079 110.45 69.9339 111.63C69.4998 111.453 69.3268 111.109 69.4159 110.595C70.1873 109.485 70.7053 108.277 70.97 106.972C73.2773 107.429 75.0904 106.739 76.4093 104.901C76.616 105.019 76.702 105.192 76.6683 105.419Z" fill="#625A52"/>
<path fill-rule="evenodd" clip-rule="evenodd" d="M56.9832 117.842C56.4822 117.166 55.7912 116.821 54.911 116.807C58.1612 115.981 58.8522 114.083 56.9832 111.113C52.8529 109.978 51.3854 111.531 52.5799 115.771C52.9513 116.053 53.2104 116.398 53.357 116.807C53.357 116.979 53.357 117.152 53.357 117.324C50.6029 114.885 50.6029 112.383 53.357 109.819C56.5133 108.93 58.4124 110.052 59.0553 113.183C58.7735 114.951 58.0824 116.504 56.9832 117.842Z" fill="#6F5A49"/>
<path fill-rule="evenodd" clip-rule="evenodd" d="M54.911 116.807C54.393 116.807 53.875 116.807 53.357 116.807C53.2104 116.398 52.9513 116.053 52.5799 115.771C51.3854 111.531 52.8529 109.978 56.9832 111.113C58.8522 114.083 58.1612 115.981 54.911 116.807Z" fill="#896847"/>
<path fill-rule="evenodd" clip-rule="evenodd" d="M69.4158 110.595C69.3267 111.109 69.4998 111.453 69.9339 111.63C68.8206 113.941 67.6115 116.184 66.3077 118.36C66.1305 117.926 65.7855 117.753 65.2716 117.842C66.6682 115.392 68.0493 112.976 69.4158 110.595Z" fill="#737271"/>
<path fill-rule="evenodd" clip-rule="evenodd" d="M20.2031 117.324C20.7152 118.66 21.2332 120.041 21.7572 121.465C21.1098 121.425 20.6781 121.08 20.4621 120.43C20.0451 121.673 19.6134 121.586 19.1671 120.171C20.0246 119.424 20.3699 118.474 20.2031 117.324Z" fill="#6D6D68"/>
<path fill-rule="evenodd" clip-rule="evenodd" d="M80.2945 124.053C80.2945 124.399 80.122 124.571 79.7765 124.571C78.1835 124.288 76.6294 123.77 75.1142 123.018C74.5433 121.626 74.6293 120.245 75.3732 118.877C76.9273 117.497 78.4814 117.497 80.0355 118.877C80.2935 120.594 80.38 122.319 80.2945 124.053Z" fill="#8C6B49"/>
<path fill-rule="evenodd" clip-rule="evenodd" d="M80.2945 124.053C80.38 122.319 80.2934 120.594 80.0355 118.877C78.4814 117.497 76.9273 117.497 75.3732 118.877C74.6293 120.245 74.5433 121.626 75.1142 123.018C76.6294 123.77 78.1835 124.288 79.7765 124.571C77.1594 125.667 75.2598 124.977 74.0781 122.501C74.0781 121.811 74.0781 121.12 74.0781 120.43C74.0636 119.352 74.4092 118.403 75.1142 117.583C77.2972 116.409 79.2828 116.667 81.0715 118.36C82.2645 120.517 82.0055 122.415 80.2945 124.053Z" fill="#715C49"/>
<path fill-rule="evenodd" clip-rule="evenodd" d="M26.9375 113.701C25.7904 119.36 25.6178 125.053 26.4195 130.783C25.7243 131.746 25.2063 132.781 24.8654 133.888C24.3985 133.479 24.0532 132.962 23.8293 132.335C24.1442 131.663 24.4895 130.973 24.8654 130.265C24.4776 129.47 23.9596 128.78 23.3113 128.194C23.4197 127.891 23.5924 127.632 23.8293 127.418C23.3113 126.555 22.6206 125.865 21.7572 125.347C22.5044 125.152 23.0224 124.721 23.3113 124.053C23.3113 122.846 23.3113 121.638 23.3113 120.43C23.7346 119.152 23.9936 117.772 24.0883 116.289C24.261 119.049 24.4337 121.811 24.6064 124.571C24.6261 120.312 25.3168 116.171 26.6785 112.148C26.9286 112.639 27.0149 113.156 26.9375 113.701Z" fill="#454340"/>
<path fill-rule="evenodd" clip-rule="evenodd" d="M20.2031 117.324C20.3699 118.474 20.0246 119.424 19.1671 120.171C19.6134 121.586 20.0451 121.673 20.4621 120.43C20.6781 121.08 21.1098 121.425 21.7572 121.465C22.1526 122.432 22.6706 123.295 23.3113 124.053C23.0224 124.721 22.5044 125.152 21.7572 125.347C22.6206 125.865 23.3113 126.555 23.8293 127.418C23.5924 127.632 23.4197 127.891 23.3113 128.194C23.9596 128.78 24.4776 129.47 24.8654 130.265C24.4895 130.972 24.1442 131.662 23.8293 132.335C21.6827 129.119 19.8696 125.668 18.39 121.983C17.9623 120.278 17.7033 118.553 17.613 116.807C17.5355 116.262 17.6219 115.744 17.872 115.254C18.5807 116.026 18.6671 116.803 18.131 117.583C18.8144 117.684 19.5051 117.597 20.2031 117.324Z" fill="#53514E"/>
<path fill-rule="evenodd" clip-rule="evenodd" d="M53.357 116.807C53.875 116.807 54.393 116.807 54.911 116.807C55.7912 116.821 56.4822 117.166 56.9832 117.842C57.8296 120.363 58.4342 122.951 58.7963 125.606C61.2113 123.173 63.3694 120.585 65.2716 117.842C65.7855 117.753 66.1305 117.926 66.3077 118.36C65.4918 119.955 64.3692 121.335 62.9405 122.501C62.5841 122.931 62.6706 123.276 63.1995 123.536C66.6553 121.959 70.2815 120.923 74.0781 120.43C74.0781 121.12 74.0781 121.811 74.0781 122.501C70.5524 122.619 67.0987 123.223 63.7175 124.312C54.0843 131.222 47.868 140.452 45.0685 152.005C44.3549 151.464 43.8368 150.774 43.5144 149.935C44.2161 146.114 45.5112 142.49 47.3996 139.065C50.105 134.634 53.2129 130.493 56.7241 126.642C56.7215 123.86 56.376 121.099 55.6881 118.36C54.8478 118.049 54.0708 117.704 53.357 117.324C53.357 117.152 53.357 116.979 53.357 116.807Z" fill="#545250"/>
<path fill-rule="evenodd" clip-rule="evenodd" d="M43.5144 149.935C43.8368 150.774 44.3549 151.464 45.0685 152.005C44.3264 154.925 43.2904 157.686 41.9603 160.287C42.0193 158.882 41.5013 157.846 40.4062 157.182C41.5537 154.765 42.5898 152.35 43.5144 149.935Z" fill="#646362"/>
<path fill-rule="evenodd" clip-rule="evenodd" d="M26.4194 130.783C29.9577 136.996 32.8069 143.553 34.9669 150.453C35.6397 154.761 36.2441 159.075 36.78 163.393C36.4357 162.426 36.0904 161.391 35.744 160.288C35.0861 162.366 35.0861 164.437 35.744 166.499C36.6879 166.48 37.724 166.652 38.8521 167.017C36.6686 171.848 34.5965 176.68 32.6358 181.51C32.6268 180.718 32.2815 180.459 31.5997 180.734C31.2233 181.459 30.9643 182.235 30.8227 183.063C30.2479 182.266 29.4708 181.924 28.4916 182.028C29.8069 177.499 31.2747 173.013 32.8948 168.57C33.9622 160.177 32.9261 152.067 29.7866 144.241C27.9989 140.842 26.3585 137.391 24.8654 133.888C25.2063 132.781 25.7243 131.746 26.4194 130.783Z" fill="#55534F"/>
<path fill-rule="evenodd" clip-rule="evenodd" d="M96.8714 154.594C97.5619 157.354 97.5619 160.115 96.8714 162.876C96.1809 160.115 96.1809 157.354 96.8714 154.594Z" fill="#5A5B51"/>
<path fill-rule="evenodd" clip-rule="evenodd" d="M6.21633 163.911C5.87096 163.911 5.6983 163.738 5.6983 163.393C6.2714 159.398 8.34351 158.276 11.9146 160.029C12.9122 162.606 12.0488 164.246 9.32451 164.946C8.18842 164.833 7.15236 164.488 6.21633 163.911Z" fill="#8D7050"/>
<path fill-rule="evenodd" clip-rule="evenodd" d="M40.4063 157.182C41.5013 157.846 42.0193 158.882 41.9603 160.287C40.7838 162.466 39.7477 164.709 38.8522 167.017C37.724 166.652 36.6879 166.48 35.744 166.499C35.0861 164.437 35.0861 162.366 35.744 160.287C36.0904 161.39 36.4358 162.426 36.7801 163.393C38.2424 161.511 39.4512 159.441 40.4063 157.182Z" fill="#4A4945"/>
<path fill-rule="evenodd" clip-rule="evenodd" d="M107.232 165.981C105.894 166.227 104.858 165.882 104.124 164.946C103.951 164.946 103.778 164.946 103.606 164.946C102.701 163.037 103.046 161.398 104.642 160.029C107.445 159.178 108.999 160.127 109.304 162.875C109.614 164.628 108.924 165.663 107.232 165.981Z" fill="#705D49"/>
<path fill-rule="evenodd" clip-rule="evenodd" d="M104.124 164.946C104.124 163.739 104.124 162.53 104.124 161.323C105.505 161.323 106.886 161.323 108.268 161.323C108.835 164.638 107.453 165.846 104.124 164.946Z" fill="#896949"/>
<path fill-rule="evenodd" clip-rule="evenodd" d="M10.8786 165.981C10.4103 166.348 10.2376 166.866 10.3606 167.534C9.48029 167.52 8.7896 167.175 8.28846 166.499C7.32124 165.847 6.63051 164.984 6.21634 163.911C7.15237 164.488 8.18843 164.833 9.32451 164.946C12.0488 164.246 12.9122 162.606 11.9147 160.029C8.34352 158.276 6.27141 159.398 5.69831 163.393C4.88588 161.449 5.40391 159.81 7.2524 158.476C10.5041 157.596 12.5762 158.717 13.4687 161.84C13.1287 163.557 12.2653 164.937 10.8786 165.981Z" fill="#675645"/>
<path fill-rule="evenodd" clip-rule="evenodd" d="M25.9014 170.122C25.2396 169.976 24.7215 169.631 24.3474 169.087C23.1996 168.723 22.2499 168.033 21.4982 167.017C20.1508 164.428 20.7551 162.443 23.3113 161.064C27.9974 160.569 29.6378 162.553 28.2326 167.017C27.1309 167.852 26.3538 168.887 25.9014 170.122Z" fill="#6B5A4A"/>
<path fill-rule="evenodd" clip-rule="evenodd" d="M23.3113 161.84C27.1912 161.22 28.6589 162.773 27.7145 166.499C24.6034 169.044 22.6176 168.353 21.7572 164.428C22.0641 163.433 22.5821 162.571 23.3113 161.84Z" fill="#8B6947"/>
<path fill-rule="evenodd" clip-rule="evenodd" d="M96.8714 154.594C96.1809 157.354 96.1809 160.115 96.8714 162.876C96.0845 166.693 94.3579 169.971 91.6911 172.711C90.1893 171.355 90.3619 170.234 92.2091 169.346C91.6419 168.479 90.8649 167.875 89.878 167.534C89.9267 169.674 89.4947 171.571 88.5829 173.228C86.4917 169.103 85.8871 164.79 86.7698 160.287C89.101 157.613 91.4321 154.939 93.7632 152.264C96.0959 151.088 97.132 151.865 96.8714 154.594Z" fill="#7A7F65"/>
<path fill-rule="evenodd" clip-rule="evenodd" d="M103.606 164.946C103.778 164.946 103.951 164.946 104.124 164.946C104.858 165.882 105.894 166.227 107.232 165.981C106.48 166.396 105.617 166.655 104.642 166.758C102.827 169.002 100.928 171.158 98.9435 173.228C97.8433 173.917 96.4622 174.434 94.7993 174.781C97.3573 172.485 99.861 170.069 102.311 167.534C102.877 166.717 103.309 165.854 103.606 164.946Z" fill="#64665D"/>
<path fill-rule="evenodd" clip-rule="evenodd" d="M77.1863 169.605C77.7002 169.516 78.0452 169.689 78.2223 170.122C77.9954 170.089 77.8224 170.175 77.7043 170.381C82.236 172.305 84.3947 175.669 84.1797 180.475C83.7046 178.342 82.8411 176.446 81.5895 174.781C81.503 175.04 81.417 175.299 81.3305 175.557C82.1371 177.141 82.5686 178.782 82.6256 180.475C82.1179 179.709 81.5134 179.02 80.8125 178.404C79.8759 175.287 78.6673 172.353 77.1863 169.605Z" fill="#7E826C"/>
<path fill-rule="evenodd" clip-rule="evenodd" d="M93.7632 175.299C93.9036 175.843 93.9901 176.533 94.0222 177.369C95.2261 176.738 96.3487 176.048 97.3894 175.299C97.7349 175.385 98.0799 175.471 98.4255 175.557C97.3143 175.942 97.2283 176.373 98.1665 176.851C99.0932 176.381 100.043 176.295 101.016 176.593C97.606 178.213 94.1523 179.678 90.655 180.992C90.137 180.992 89.619 180.992 89.101 180.992C90.0826 178.632 91.6367 176.732 93.7632 175.299Z" fill="#6C715B"/>
<path fill-rule="evenodd" clip-rule="evenodd" d="M98.9435 173.228C101.879 173.228 104.814 173.228 107.75 173.228C107.861 174.079 107.688 174.855 107.232 175.557C104.187 177.83 101.251 180.159 98.4255 182.545C95.7063 182.359 93.1162 181.841 90.655 180.992C94.1522 179.678 97.6059 178.213 101.016 176.593C100.043 176.294 99.0932 176.381 98.1664 176.851C97.2283 176.373 97.3143 175.942 98.4255 175.557C98.0799 175.471 97.7349 175.385 97.3894 175.299C96.3487 176.048 95.2261 176.738 94.0222 177.369C93.9901 176.533 93.9036 175.843 93.7632 175.299C93.9404 174.865 94.2854 174.692 94.7993 174.781C96.4621 174.434 97.8432 173.916 98.9435 173.228Z" fill="#83876C"/>
<path fill-rule="evenodd" clip-rule="evenodd" d="M77.1863 169.605C78.6673 172.353 79.8759 175.287 80.8125 178.404C81.5134 179.02 82.1179 179.709 82.6256 180.475C82.5686 178.782 82.1371 177.141 81.3305 175.557C81.417 175.299 81.503 175.04 81.5895 174.781C82.8411 176.446 83.7046 178.342 84.1797 180.475C84.3947 175.669 82.236 172.305 77.7043 170.381C77.8224 170.175 77.9954 170.089 78.2223 170.122C81.4574 171.112 83.7021 173.182 84.9567 176.334C84.9567 178.058 84.9567 179.786 84.9567 181.51C84.49 181.919 84.1445 182.437 83.9207 183.063C82.0128 181.236 80.3722 179.165 78.9994 176.852C78.2705 174.317 77.1485 171.987 75.6322 169.864C76.1233 169.614 76.6413 169.528 77.1863 169.605Z" fill="#5A5B51"/>
<path fill-rule="evenodd" clip-rule="evenodd" d="M84.9567 176.334C85.3023 178.404 85.6473 180.475 85.9928 182.546C85.9617 182.825 85.7892 183.001 85.4748 183.063C85.0158 182.639 84.8433 182.121 84.9567 181.51C84.9567 179.787 84.9567 178.058 84.9567 176.334Z" fill="#939391"/>
<path fill-rule="evenodd" clip-rule="evenodd" d="M91.6911 172.71C91.1948 173.467 90.5908 174.157 89.878 174.781C89.1605 177.757 88.0385 180.521 86.5108 183.063C86.5108 182.716 86.3383 182.545 85.9928 182.545C87.1806 179.522 88.0437 176.417 88.5829 173.228C89.4947 171.571 89.9267 169.674 89.878 167.534C90.8649 167.875 91.6419 168.479 92.2091 169.346C90.3619 170.234 90.1893 171.355 91.6911 172.71Z" fill="#63645B"/>
<path fill-rule="evenodd" clip-rule="evenodd" d="M24.3474 169.087C24.7215 169.631 25.2396 169.976 25.9014 170.122C25.8572 174.731 26.5479 179.217 27.9736 183.581C28.4324 183.156 28.605 182.639 28.4916 182.028C29.4709 181.924 30.2479 182.266 30.8227 183.063C30.9643 182.235 31.2234 181.458 31.5998 180.734C32.2815 180.459 32.6269 180.718 32.6358 181.51C32.1521 185.449 31.9794 189.42 32.1178 193.416C32.1952 193.959 32.1089 194.477 31.8588 194.969C31.6861 193.933 31.5134 192.898 31.3407 191.863C30.4926 192.551 30.0608 193.245 30.0457 193.933C29.687 193.659 29.428 193.317 29.2686 192.898C28.8847 193.488 28.453 193.488 27.9736 192.898C27.6277 191.444 27.2823 190.067 26.9375 188.757C25.6863 182.25 24.8229 175.692 24.3474 169.087Z" fill="#4D4B48"/>
<path fill-rule="evenodd" clip-rule="evenodd" d="M89.101 180.993C89.619 180.993 90.137 180.993 90.6551 180.993C93.1162 181.842 95.7064 182.359 98.4255 182.546C95.8296 182.458 93.2395 182.546 90.6551 182.804C86.6061 185.807 84.534 189.86 84.4387 194.969C83.8761 194.907 83.5306 194.56 83.4026 193.933C83.8658 191.366 84.0383 188.778 83.9207 186.169C83.9207 185.134 83.9207 184.098 83.9207 183.063C84.1445 182.437 84.49 181.919 84.9567 181.51C84.8433 182.121 85.0158 182.639 85.4748 183.063C85.7892 183.001 85.9617 182.825 85.9928 182.546C86.3383 182.546 86.5108 182.716 86.5108 183.063C86.4336 183.607 86.5196 184.124 86.7698 184.616C87.6624 183.467 88.4394 182.261 89.101 180.993Z" fill="#4B4A46"/>
<path fill-rule="evenodd" clip-rule="evenodd" d="M40.4063 193.416C39.3366 193.426 38.3006 193.597 37.2981 193.933C37.6266 193.183 38.231 192.841 39.1112 192.898C39.6654 192.913 40.0971 193.084 40.4063 193.416Z" fill="#AFA69E"/>
<path fill-rule="evenodd" clip-rule="evenodd" d="M40.4063 193.416C41.25 194 42.0271 194.689 42.7374 195.486C43.3164 200.869 41.158 202.598 36.262 200.662C36.262 200.316 36.4347 200.145 36.7801 200.145C41.5204 201.009 42.9019 199.197 40.9243 194.71C39.6108 194.611 38.402 194.352 37.2981 193.933C38.3006 193.597 39.3366 193.426 40.4063 193.416Z" fill="#6F5A4B"/>
<path fill-rule="evenodd" clip-rule="evenodd" d="M37.2981 193.933C38.402 194.353 39.6108 194.611 40.9243 194.71C42.9018 199.198 41.5204 201.009 36.78 200.145C36.78 199.456 36.4347 199.11 35.744 199.11C35.6341 197.117 36.1521 195.393 37.2981 193.933Z" fill="#8D6E51"/>
<path fill-rule="evenodd" clip-rule="evenodd" d="M83.9206 186.169C84.0382 188.778 83.8657 191.366 83.4026 193.933C83.5306 194.56 83.8761 194.907 84.4387 194.969C84.2771 200.269 84.7951 205.445 85.9928 210.497C85.6187 210.28 85.3597 209.938 85.2157 209.462C85.0432 209.98 84.8702 210.497 84.6977 211.015C84.5252 208.427 84.3522 205.839 84.1797 203.251C84.2284 205.388 83.7963 207.288 82.8846 208.945C81.2699 201.196 81.6149 193.602 83.9206 186.169Z" fill="#686663"/>
<path fill-rule="evenodd" clip-rule="evenodd" d="M76.6683 206.356C77.0335 207.485 77.0335 208.52 76.6683 209.462C74.8288 208.049 72.9297 206.755 70.97 205.58C70.4846 205.223 70.1396 205.306 69.9339 205.839C68.3555 206.17 67.2334 205.652 66.5667 204.286C65.8052 204.684 65.0282 205.026 64.2356 205.321C63.7818 205.388 63.4363 205.218 63.1995 204.804C64.1506 204.069 65.1867 203.463 66.3077 202.992C70.5592 201.905 74.0129 203.028 76.6683 206.356Z" fill="#878B72"/>
<path fill-rule="evenodd" clip-rule="evenodd" d="M69.9339 205.839C72.8116 207.5 75.4017 209.571 77.7043 212.05C76.6916 212.998 75.483 213.256 74.0781 212.827C72.1967 211.465 70.4701 209.913 68.8979 208.168C68.4125 207.811 68.0675 207.894 67.8618 208.427C66.6403 207.376 65.4312 206.341 64.2356 205.321C65.0282 205.026 65.8052 204.684 66.5667 204.286C67.2334 205.652 68.3555 206.17 69.9339 205.839Z" fill="#949B7B"/>
<path fill-rule="evenodd" clip-rule="evenodd" d="M104.642 205.321C100.597 204.721 97.8344 206.361 96.3534 210.238C96.5259 210.497 96.6989 210.756 96.8714 211.015C97.5956 209.824 98.4586 208.706 99.4616 207.65C100.536 207.769 101.572 207.681 102.57 207.392C102.742 207.562 102.915 207.738 103.088 207.909C102.634 208.297 102.116 208.556 101.534 208.686C102.228 209.798 101.882 210.404 100.498 210.497C99.2875 211.274 98.3379 212.309 97.6485 213.603C97.535 212.858 97.276 212.169 96.8714 211.533C96.2518 211.714 96.2518 211.973 96.8714 212.309C96.588 212.785 96.243 213.22 95.8354 213.603C95.9229 212.433 95.7504 211.222 95.3173 209.98C96.3948 208.121 97.7759 206.486 99.4616 205.062C101.235 204.674 102.962 204.762 104.642 205.321Z" fill="#797F64"/>
<path fill-rule="evenodd" clip-rule="evenodd" d="M76.6683 206.356C78.1074 208.023 79.1434 209.923 79.7764 212.05C79.792 212.568 79.533 212.91 78.9994 213.086C78.4757 212.796 78.0442 212.454 77.7043 212.05C75.4017 209.571 72.8115 207.5 69.9339 205.839C70.1396 205.306 70.4846 205.223 70.97 205.58C72.9297 206.755 74.8288 208.049 76.6683 209.462C77.0335 208.52 77.0335 207.485 76.6683 206.356Z" fill="#55574C"/>
<path fill-rule="evenodd" clip-rule="evenodd" d="M85.9928 210.497C86.5171 212.578 87.0351 214.649 87.5469 216.709C87.3723 217.832 86.8543 218.785 85.9928 219.556C87.8634 222.677 88.468 226.042 87.8059 229.65C87.6619 229.173 87.4029 228.832 87.0289 228.614C87.06 225.177 86.0239 222.071 83.9207 219.297C83.8316 218.785 84.0046 218.438 84.4387 218.262C84.7698 217.951 84.9423 217.521 84.9568 216.968C84.1673 214.317 83.4768 211.641 82.8846 208.944C83.7964 207.288 84.2284 205.388 84.1797 203.25C84.3522 205.839 84.5252 208.427 84.6977 211.015C84.8702 210.497 85.0433 209.98 85.2158 209.462C85.3598 209.938 85.6188 210.28 85.9928 210.497Z" fill="#53514F"/>
<path fill-rule="evenodd" clip-rule="evenodd" d="M95.3173 209.98C95.7504 211.222 95.9229 212.433 95.8353 213.603C96.243 213.22 96.588 212.785 96.8714 212.309C96.2518 211.973 96.2518 211.714 96.8714 211.533C97.276 212.169 97.535 212.858 97.6484 213.603C98.3379 212.309 99.2875 211.274 100.498 210.497C99.3243 213.344 97.5112 215.762 95.0583 217.744C94.8081 218.236 94.7221 218.754 94.7993 219.297C94.2921 217.682 94.1191 215.953 94.2813 214.121C94.0797 212.542 94.4248 211.16 95.3173 209.98Z" fill="#636750"/>
<path fill-rule="evenodd" clip-rule="evenodd" d="M104.642 205.321C105.156 205.233 105.501 205.404 105.678 205.839C103.815 207.889 102.606 210.306 102.052 213.086C101.134 213.365 100.962 213.795 101.534 214.38C100.193 215.632 98.9839 216.926 97.9075 218.262C97.1356 219.183 96.0995 219.53 94.7993 219.297C94.7221 218.754 94.8081 218.236 95.0583 217.744C97.5112 215.762 99.3243 213.344 100.498 210.497C101.882 210.404 102.228 209.799 101.534 208.686C102.116 208.556 102.634 208.297 103.088 207.909C102.915 207.738 102.742 207.562 102.57 207.392C101.572 207.681 100.536 207.769 99.4615 207.65C98.4586 208.706 97.5956 209.824 96.8714 211.015C96.6989 210.756 96.5259 210.497 96.3534 210.239C97.8344 206.362 100.597 204.721 104.642 205.321Z" fill="#8C9376"/>
<path fill-rule="evenodd" clip-rule="evenodd" d="M77.7044 212.05C78.0442 212.454 78.4757 212.796 78.9994 213.086C79.533 212.91 79.792 212.568 79.7765 212.05C81.5766 213.914 83.1307 215.984 84.4387 218.262C84.0046 218.438 83.8316 218.785 83.9207 219.297C82.5598 217.377 81.0058 215.565 79.2585 213.862C74.4014 214.457 70.6027 212.646 67.8618 208.427C68.0675 207.894 68.4125 207.811 68.8979 208.168C70.4701 209.913 72.1967 211.465 74.0782 212.827C75.4831 213.256 76.6916 212.998 77.7044 212.05Z" fill="#6D6D65"/>
<path fill-rule="evenodd" clip-rule="evenodd" d="M105.678 205.839C105.959 205.87 106.132 206.04 106.196 206.356C104.896 208.437 103.946 210.684 103.347 213.085C102.287 214.597 101.165 216.067 99.9796 217.485C99.3346 217.894 98.6441 218.153 97.9075 218.262C98.9839 216.926 100.193 215.632 101.534 214.379C100.962 213.795 101.134 213.365 102.052 213.085C102.607 210.306 103.815 207.888 105.678 205.839Z" fill="#7F7F71"/>
<path fill-rule="evenodd" clip-rule="evenodd" d="M119.147 222.92C118.98 222.118 118.462 221.776 117.593 221.885C120.647 219.017 123.669 216.083 126.658 213.085C126.927 214.012 126.755 214.876 126.14 215.674C123.572 217.93 121.241 220.348 119.147 222.92Z" fill="#60605F"/>
<path fill-rule="evenodd" clip-rule="evenodd" d="M163.697 217.744C162.535 217.226 162.363 216.45 163.179 215.415C162.906 213.934 162.56 212.464 162.143 211.015C161.176 211.688 161.003 212.464 161.625 213.344C159.73 216.698 158.867 220.234 159.035 223.956C159.262 224.478 159.607 224.478 160.071 223.956C160.484 224.194 160.657 224.535 160.589 224.991C160.583 225.778 160.238 226.378 159.553 226.803C161.807 225.845 163.534 224.209 164.733 221.885C167.753 222.211 167.925 222.812 165.251 223.697C167.943 224.147 170.534 223.8 173.022 222.662C172.316 221.559 172.489 221.3 173.54 221.885C174.21 221.575 174.901 221.316 175.612 221.109C175.266 220.938 174.921 220.762 174.576 220.591C175.698 219.815 176.82 219.038 177.943 218.262C178.466 217.475 178.725 216.61 178.72 215.674C180.659 215.694 180.745 215.347 178.979 214.638C178.781 214.928 178.522 215.099 178.202 215.156C178.202 214.985 178.202 214.809 178.202 214.638C178.752 214.079 178.752 213.562 178.202 213.085C177.567 213.531 176.876 213.531 176.13 213.085C176.704 212.676 177.395 212.418 178.202 212.309C177.005 212.05 175.797 211.967 174.576 212.05C177.759 211.538 181.04 211.367 184.418 211.533C183.283 214.136 181.47 216.207 178.979 217.744C175.56 223.464 170.466 225.964 163.697 225.25C162.231 226.285 160.849 227.408 159.553 228.614C158.961 228.764 158.27 228.764 157.481 228.614C157.127 228.997 156.782 229.344 156.445 229.65C156.138 227.998 155.533 226.445 154.632 224.991C154.286 222.403 154.286 219.815 154.632 217.226C157.374 213.639 159.705 209.84 161.625 205.839C163.366 209.597 164.056 213.567 163.697 217.744Z" fill="#767869"/>
<path fill-rule="evenodd" clip-rule="evenodd" d="M176.13 213.085C176.876 213.531 177.567 213.531 178.202 213.085C178.752 213.562 178.752 214.079 178.202 214.638C174.36 215.606 171.08 217.506 168.359 220.332C171.369 218.562 174.65 216.838 178.202 215.156C178.522 215.099 178.781 214.928 178.979 214.638C180.745 215.347 180.659 215.694 178.72 215.674C178.725 216.61 178.466 217.475 177.943 218.262C176.82 219.038 175.698 219.815 174.576 220.591C174.921 220.762 175.266 220.938 175.612 221.109C174.901 221.316 174.211 221.575 173.54 221.885C172.489 221.3 172.316 221.559 173.022 222.662C170.534 223.8 167.943 224.147 165.251 223.697C167.925 222.812 167.753 222.211 164.733 221.885C164.644 221.373 164.817 221.026 165.251 220.85C165.412 221.492 165.671 221.492 166.028 220.85C167.793 216.212 171.16 213.624 176.13 213.085Z" fill="#93977A"/>
<path fill-rule="evenodd" clip-rule="evenodd" d="M159.553 212.05C159.888 212.449 160.061 212.966 160.071 213.603C159.058 216.787 158.281 220.068 157.74 223.438C157.377 224.23 156.773 224.748 155.927 224.991C155.533 222.682 155.447 220.265 155.668 217.744C156.978 215.803 158.273 213.903 159.553 212.05Z" fill="#898E6E"/>
<path fill-rule="evenodd" clip-rule="evenodd" d="M163.697 217.744C163.206 220.446 162.169 222.863 160.589 224.991C160.657 224.535 160.484 224.194 160.071 223.956C159.607 224.478 159.262 224.478 159.035 223.956C158.867 220.234 159.73 216.698 161.625 213.344C161.003 212.464 161.176 211.688 162.143 211.015C162.56 212.464 162.906 213.934 163.179 215.415C162.363 216.45 162.535 217.226 163.697 217.744Z" fill="#8A8F74"/>
<path fill-rule="evenodd" clip-rule="evenodd" d="M178.202 214.638C178.202 214.809 178.202 214.985 178.202 215.156C174.65 216.838 171.369 218.562 168.359 220.332C171.08 217.506 174.36 215.606 178.202 214.638Z" fill="#5B624B"/>
<path fill-rule="evenodd" clip-rule="evenodd" d="M174.576 212.05C175.797 211.967 177.005 212.05 178.202 212.309C177.395 212.418 176.704 212.677 176.13 213.085C171.16 213.624 167.793 216.212 166.028 220.85C165.671 221.492 165.412 221.492 165.251 220.85C166.675 216.15 169.783 213.215 174.576 212.05Z" fill="#676C5A"/>
<path fill-rule="evenodd" clip-rule="evenodd" d="M94.2813 214.121C94.1191 215.953 94.2921 217.682 94.7993 219.297C93.7876 223.625 92.3195 227.766 90.396 231.72C89.4227 235.628 88.9906 239.599 89.101 243.626C93.3711 243.398 97.5153 243.745 101.534 244.661C97.8935 245.406 94.2673 245.924 90.6551 246.214C89.7915 246.561 88.9285 246.902 88.0649 247.249C88.024 246.509 88.1965 245.82 88.5829 245.179C88.196 245.054 87.7645 244.883 87.2879 244.661C87.0314 243.641 86.9449 242.606 87.0289 241.555C87.6375 241.669 88.1556 241.498 88.5829 241.038C88.4037 240.416 88.1447 240.416 87.8059 241.038C87.6334 240.173 87.4604 239.314 87.2879 238.449C87.4407 235.773 87.3542 233.185 87.0289 230.685C87.0289 229.997 87.0289 229.303 87.0289 228.614C87.4029 228.832 87.6619 229.173 87.8059 229.65C88.4679 226.042 87.8634 222.677 85.9928 219.556C86.8543 218.785 87.3723 217.832 87.5469 216.709C88.2519 220.193 89.288 223.645 90.6551 227.062C91.4052 225.938 92.0097 224.732 92.4682 223.438C93.2436 220.307 93.8477 217.201 94.2813 214.121Z" fill="#615F5C"/>
<path fill-rule="evenodd" clip-rule="evenodd" d="M15.5409 232.755C15.1581 232.688 14.8127 232.776 14.5048 233.014C15.1242 233.351 15.1242 233.609 14.5048 233.791C13.6113 232.968 13.0932 233.138 12.9507 234.308C8.7075 233.361 4.39059 233.019 0 233.273C0 232.755 0 232.238 0 231.72C2.48604 231.301 4.98984 230.954 7.51142 230.685C10.4131 230.706 13.0896 231.394 15.5409 232.755Z" fill="#62615D"/>
<path fill-rule="evenodd" clip-rule="evenodd" d="M139.868 236.896C136.431 236.27 132.977 235.923 129.507 235.861C130.437 235.483 131.3 234.966 132.097 234.308C132.623 234.96 133.4 235.307 134.428 235.343C136.069 235.136 137.71 234.966 139.35 234.826C139.35 234.308 139.35 233.791 139.35 233.273C137.341 233.387 135.442 233.904 133.651 234.826C133.479 234.655 133.306 234.479 133.133 234.308C133.824 233.62 134.515 232.926 135.206 232.238C135.141 231.922 134.969 231.751 134.687 231.72C134.977 231.052 135.495 230.623 136.242 230.426C139.257 229.934 142.192 230.193 145.048 231.202C145.609 231.648 145.695 232.165 145.307 232.755C143.804 234.583 141.991 235.959 139.868 236.896Z" fill="#868A73"/>
<path fill-rule="evenodd" clip-rule="evenodd" d="M134.687 231.72C134.969 231.751 135.141 231.922 135.206 232.238C134.515 232.926 133.824 233.62 133.133 234.308C133.306 234.479 133.479 234.655 133.651 234.826C135.442 233.905 137.341 233.387 139.35 233.273C139.35 233.791 139.35 234.308 139.35 234.826C137.71 234.966 136.069 235.137 134.428 235.344C133.4 235.307 132.623 234.961 132.097 234.308C132.788 233.273 133.651 232.409 134.687 231.72Z" fill="#606152"/>
<path fill-rule="evenodd" clip-rule="evenodd" d="M112.93 230.685C113.231 232.833 112.886 234.733 111.894 236.379C112.207 234.427 112.552 232.528 112.93 230.685Z" fill="#91928E"/>
<path fill-rule="evenodd" clip-rule="evenodd" d="M159.553 228.614C157.638 230.876 155.911 233.294 154.373 235.861C157.495 236.736 160.603 237.595 163.697 238.449C163.007 238.796 162.316 239.138 161.625 239.484C158.902 237.859 155.966 237.253 152.818 237.673C149.276 240.307 145.304 241.772 140.904 242.073C140.352 241.457 139.92 241.627 139.609 242.59C139.032 242.171 138.428 241.829 137.796 241.555C138.486 241.208 139.177 240.867 139.868 240.52C141.431 240.603 142.985 240.52 144.53 240.261C149.749 238.061 153.72 234.526 156.445 229.65C156.782 229.344 157.127 228.997 157.481 228.614C158.27 228.764 158.961 228.764 159.553 228.614Z" fill="#605E5B"/>
<path fill-rule="evenodd" clip-rule="evenodd" d="M139.868 236.896C136.587 237.243 133.306 237.585 130.025 237.932C129.571 237.999 129.226 237.828 128.989 237.414C132.599 236.896 136.225 236.726 139.868 236.896Z" fill="#D0D2D1"/>
<path fill-rule="evenodd" clip-rule="evenodd" d="M125.881 236.379C125.094 236.85 124.231 237.279 123.291 237.673C124.534 238.04 125.742 237.952 126.917 237.414C127.33 237.652 127.503 237.994 127.435 238.449C125.709 238.449 123.981 238.449 122.255 238.449C122.104 237.854 121.673 237.507 120.96 237.414C119.679 237.838 118.384 238.185 117.075 238.449C117.644 237.9 118.335 237.471 119.147 237.155C121.381 236.772 123.626 236.513 125.881 236.379Z" fill="#7C7A76"/>
<path fill-rule="evenodd" clip-rule="evenodd" d="M129.507 235.861C132.978 235.923 136.431 236.27 139.868 236.896C136.225 236.726 132.599 236.896 128.989 237.414C129.226 237.828 129.571 237.999 130.025 237.932C131.529 238.594 133.083 239.112 134.688 239.484C134.688 240.349 134.688 241.208 134.688 242.073C134.079 242.187 133.561 242.016 133.133 241.555C133.561 241.063 133.647 240.546 133.392 240.002C132.869 240.437 132.264 240.608 131.579 240.52C130.289 239.557 128.908 238.869 127.435 238.449C127.503 237.994 127.33 237.652 126.917 237.414C125.742 237.952 124.534 238.04 123.291 237.673C124.231 237.279 125.094 236.85 125.881 236.379C127.076 236.125 128.284 235.949 129.507 235.861Z" fill="#5B5952"/>
<path fill-rule="evenodd" clip-rule="evenodd" d="M64.7536 236.896C65.5446 236.86 66.0627 237.202 66.3077 237.932C66.0264 237.963 65.8539 238.134 65.7896 238.449C66.0994 239.117 66.3584 239.811 66.5667 240.52C67.7623 241.11 68.7119 241.974 69.4159 243.108C68.6212 243.75 67.7582 244.009 66.8257 243.884C66.3942 243.108 65.7896 242.502 65.0126 242.073C64.7624 241.581 64.6764 241.063 64.7536 240.52C63.9253 240.38 63.2347 240.556 62.6815 241.037C61.4729 240.173 60.4369 239.138 59.5733 237.932C59.7743 236.974 60.4648 236.11 61.6454 235.344C62.4074 235.799 62.839 236.487 62.9405 237.414C63.4642 236.979 64.0688 236.808 64.7536 236.896Z" fill="#625F59"/>
<path fill-rule="evenodd" clip-rule="evenodd" d="M134.688 239.485C136.391 239.935 138.118 240.282 139.868 240.52C139.177 240.867 138.486 241.208 137.796 241.555C137.235 241.534 136.717 241.364 136.242 241.038C135.72 241.265 135.72 241.607 136.242 242.073C135.551 242.42 134.86 242.761 134.169 243.108C134.686 244.92 135.723 246.39 137.278 247.508C137.16 247.715 136.987 247.803 136.76 247.767C135.974 247.761 135.369 247.415 134.947 246.731C133.947 244.557 132.824 242.487 131.579 240.52C132.264 240.608 132.869 240.437 133.392 240.002C133.647 240.546 133.561 241.063 133.133 241.555C133.561 242.016 134.079 242.187 134.688 242.073C134.688 241.208 134.688 240.349 134.688 239.485Z" fill="#6A695B"/>
<path fill-rule="evenodd" clip-rule="evenodd" d="M216.018 246.214C215.18 246.493 214.317 246.664 213.428 246.731C212.442 246.607 211.751 246.09 211.356 245.178C212.738 245.639 214.292 245.639 216.018 245.178C218.074 243.413 218.074 241.602 216.018 239.743C214.982 239.397 213.946 239.397 212.91 239.743C211.81 241.069 211.119 242.539 210.838 244.143C210.253 243.041 210.166 241.835 210.579 240.52C214.022 237.44 216.699 238.046 218.608 242.332C218.629 244.304 217.766 245.598 216.018 246.214Z" fill="#695747"/>
<path fill-rule="evenodd" clip-rule="evenodd" d="M211.356 245.179C210.922 245.003 210.749 244.656 210.838 244.143C211.119 242.539 211.81 241.069 212.91 239.744C213.946 239.397 214.982 239.397 216.018 239.744C218.074 241.602 218.074 243.413 216.018 245.179C214.292 245.639 212.738 245.639 211.356 245.179Z" fill="#8F6C4D"/>
<path fill-rule="evenodd" clip-rule="evenodd" d="M137.796 241.555C138.428 241.829 139.032 242.171 139.609 242.59C139.92 241.627 140.352 241.457 140.904 242.073C140.677 242.036 140.504 242.124 140.386 242.331C142.189 244.562 144.088 246.721 146.084 248.802C143.511 249.402 140.921 249.49 138.314 249.061C137.759 248.621 137.241 248.186 136.76 247.767C136.987 247.803 137.16 247.715 137.278 247.508C135.723 246.39 134.686 244.92 134.169 243.108C134.86 242.761 135.551 242.419 136.242 242.073C135.72 241.607 135.72 241.265 136.242 241.037C136.717 241.363 137.235 241.534 137.796 241.555Z" fill="#777963"/>
<path fill-rule="evenodd" clip-rule="evenodd" d="M163.697 238.449C167.619 238.325 169.087 240.225 168.1 244.143C162.706 247.125 160.547 245.572 161.625 239.485C162.316 239.138 163.007 238.796 163.697 238.449Z" fill="#6B5646"/>
<path fill-rule="evenodd" clip-rule="evenodd" d="M162.661 239.485C167.588 239.241 168.537 240.97 165.51 244.661C163.079 245.468 161.957 244.521 162.143 241.814C162.197 240.991 162.37 240.215 162.661 239.485Z" fill="#8F6D4E"/>
<path fill-rule="evenodd" clip-rule="evenodd" d="M18.649 245.696C17.7688 245.613 16.9054 245.701 16.0589 245.955C18.6588 246.053 20.2129 247.347 20.7211 249.837C18.9974 252.658 16.839 253.176 14.2458 251.39C13.7611 249.687 14.0201 248.134 15.0228 246.731C14.9588 246.415 14.7861 246.245 14.5048 246.214C15.0186 245.422 15.7957 245.08 16.8359 245.178C17.5532 245.184 18.1576 245.36 18.649 245.696Z" fill="#896C4F"/>
<path fill-rule="evenodd" clip-rule="evenodd" d="M202.549 257.601C202.204 257.601 201.859 257.601 201.513 257.601C203.36 255.707 203.187 253.895 200.995 252.166C199.959 251.82 198.923 251.82 197.887 252.166C197.12 254.144 197.292 256.043 198.405 257.86C198.896 258.109 199.414 258.197 199.959 258.119C200.082 258.787 199.909 259.304 199.441 259.672C198.096 258.932 196.974 257.897 196.074 256.566C195.283 252.529 196.923 250.546 200.995 250.613C203.406 252.135 204.183 254.294 203.326 257.084C203.128 257.374 202.869 257.545 202.549 257.601Z" fill="#75604E"/>
<path fill-rule="evenodd" clip-rule="evenodd" d="M14.5048 246.214C14.7862 246.245 14.9588 246.415 15.0228 246.731C14.0201 248.134 13.7611 249.687 14.2458 251.39C16.839 253.176 18.9974 252.658 20.7212 249.837C20.8938 249.837 21.0665 249.837 21.2392 249.837C20.9798 251.214 20.2891 252.332 19.1671 253.202C15.304 254.553 13.2319 253.259 12.9507 249.319C12.7274 247.823 13.2454 246.788 14.5048 246.214Z" fill="#6D5847"/>
<path fill-rule="evenodd" clip-rule="evenodd" d="M87.0289 230.685C87.3542 233.185 87.4407 235.773 87.2879 238.449C87.4604 239.314 87.6334 240.173 87.8059 241.037C88.1447 240.416 88.4037 240.416 88.583 241.037C88.1556 241.498 87.6376 241.669 87.0289 241.555C86.945 242.606 87.0315 243.641 87.2879 244.661C87.7645 244.883 88.196 245.054 88.583 245.178C88.1965 245.82 88.024 246.509 88.0649 247.249C86.4311 250.857 84.877 254.48 83.4027 258.119C82.2418 257.482 81.2057 256.618 80.2945 255.531C80.122 255.702 79.949 255.878 79.7765 256.049C80.1717 256.68 80.6898 257.198 81.3306 257.601C80.653 258.186 79.9619 258.186 79.2584 257.601C79.3398 256.892 79.2533 256.199 78.9994 255.531C72.8432 251.54 67.4039 246.705 62.6815 241.037C63.2348 240.556 63.9253 240.38 64.7536 240.52C64.6764 241.063 64.7624 241.581 65.0126 242.073C65.7897 242.502 66.3942 243.108 66.8257 243.884C67.7582 244.009 68.6212 243.75 69.4159 243.108C68.7119 241.974 67.7623 241.11 66.5667 240.52C66.3585 239.811 66.0995 239.117 65.7897 238.449C65.8539 238.133 66.0264 237.963 66.3077 237.932C70.8845 242.808 76.0648 246.949 81.8486 250.355C82.6645 248.553 83.6145 246.824 84.6977 245.178C85.7618 240.323 86.5388 235.488 87.0289 230.685Z" fill="#585653"/>
<path fill-rule="evenodd" clip-rule="evenodd" d="M201.513 257.601C201.052 257.917 200.534 258.088 199.959 258.119C199.414 258.197 198.896 258.109 198.405 257.86C197.292 256.043 197.12 254.144 197.887 252.166C198.923 251.82 199.959 251.82 200.995 252.166C203.188 253.895 203.36 255.707 201.513 257.601Z" fill="#8E6C4C"/>
<path fill-rule="evenodd" clip-rule="evenodd" d="M10.8786 165.981C11.6853 172.683 14.6208 178.291 19.6851 182.804C22.9089 184.471 25.2401 186.976 26.6785 190.31C26.9286 189.818 27.0149 189.301 26.9375 188.757C27.2824 190.067 27.6277 191.444 27.9736 192.898C28.453 193.488 28.8847 193.488 29.2686 192.898C29.428 193.317 29.687 193.659 30.0457 193.933C30.0609 193.245 30.4926 192.551 31.3407 191.863C31.5134 192.898 31.6861 193.933 31.8588 194.969C32.1089 194.477 32.1952 193.959 32.1178 193.416C32.8002 195.942 33.4909 198.53 34.1899 201.18C34.5265 200.311 35.0445 199.617 35.744 199.11C36.4347 199.11 36.78 199.456 36.78 200.145C36.4347 200.145 36.262 200.316 36.262 200.663C34.8586 205.979 35.8084 210.808 39.1112 215.156C42.6056 217.724 46.1454 220.224 49.7308 222.662C54.9753 227.175 59.9826 231.922 64.7536 236.897C64.0688 236.809 63.4642 236.979 62.9405 237.414C62.839 236.488 62.4075 235.799 61.6454 235.344C60.4648 236.11 59.7743 236.974 59.5733 237.932C53.4901 231.855 46.9282 226.332 39.8882 221.368C39.7156 221.885 39.5429 222.403 39.3702 222.921C40.4377 227.424 41.5601 231.912 42.7374 236.379C46.8982 251.701 55.4457 263.865 68.3798 272.872C70.0473 274.709 71.5149 276.697 72.7831 278.824C74.0652 271.443 76.2238 264.372 79.2584 257.602C79.9619 258.187 80.6529 258.187 81.3305 257.602C80.6897 257.198 80.1717 256.68 79.7764 256.049C79.9489 255.878 80.122 255.702 80.2945 255.531C81.2057 256.618 82.2417 257.483 83.4026 258.119C76.819 270.46 75.783 283.229 80.2945 296.424C80.2634 296.703 80.0909 296.879 79.7764 296.941C78.7813 296.16 77.7453 295.725 76.6683 295.647C77.0822 294.741 76.7367 294.053 75.6322 293.577C76.2342 292.63 76.0611 291.77 75.1142 290.989C76.4906 288.866 76.0586 288.608 73.8191 290.212C73.4736 289.865 73.1286 289.524 72.7831 289.177C72.1169 290.047 71.5123 290.911 70.97 291.765C70.1815 284.756 67.2458 278.804 62.1635 273.907C54.8898 267.499 47.4648 261.287 39.8882 255.272C34.4561 250.893 28.2397 249.081 21.2392 249.837C21.0665 249.837 20.8938 249.837 20.7212 249.837C20.2129 247.347 18.6588 246.053 16.0589 245.955C16.9054 245.701 17.7688 245.613 18.649 245.696C19.1671 246.043 19.6851 246.385 20.2031 246.731C20.3606 247.068 20.5333 247.415 20.7212 247.767C23.1142 248.279 25.5317 248.455 27.9736 248.284C29.1751 248.631 30.3838 248.714 31.5998 248.543C27.3021 245.111 23.1579 241.488 19.1671 237.673C17.1636 236.415 15.0915 235.292 12.9507 234.308C13.0932 233.139 13.6113 232.968 14.5048 233.791C15.1242 233.61 15.1242 233.351 14.5048 233.014C14.8127 232.776 15.1581 232.688 15.5409 232.755C17.79 233.532 19.8621 234.655 21.7572 236.12C27.2069 240.867 32.7325 245.525 38.3341 250.096C39.9922 251.271 41.719 252.13 43.5144 252.684C41.484 248.02 39.6709 243.279 38.0751 238.449C36.3119 231.379 34.4124 224.303 32.3768 217.227C30.5729 216.279 28.7598 215.332 26.9375 214.38C20.6758 212.64 14.4594 210.746 8.28846 208.686C5.42578 207.169 2.66296 205.533 0 203.768C0 202.215 0 200.663 0 199.11C3.52188 200.994 6.97541 202.976 10.3606 205.062C17.5573 206.403 24.378 208.732 30.8227 212.05C29.197 203.613 26.0888 195.673 21.4982 188.239C19.8578 186.599 18.2174 184.963 16.5769 183.322C10.4557 180.698 4.93007 177.157 0 172.711C0 172.021 0 171.33 0 170.64C1.28132 172.35 2.83541 173.817 4.66226 175.04C7.5223 176.426 10.3715 177.892 13.2097 179.44C13.4688 179.269 13.7278 179.093 13.9868 178.922C11.092 175.253 9.19253 171.112 8.28846 166.499C8.7896 167.175 9.48029 167.52 10.3606 167.534C10.2376 166.866 10.4103 166.348 10.8786 165.981Z" fill="#565450"/>
<path fill-rule="evenodd" clip-rule="evenodd" d="M224.306 256.049C223.756 255.22 223.756 254.356 224.306 253.461C224.869 251.69 226.078 250.655 227.933 250.355C232.92 252.089 233.611 254.765 230.005 258.378C227.407 259.211 225.508 258.435 224.306 256.049Z" fill="#705E4C"/>
<path fill-rule="evenodd" clip-rule="evenodd" d="M226.379 251.908C230.808 251.711 232.016 253.523 230.005 257.343C226.633 258.109 224.992 256.815 225.084 253.46C225.818 253.16 226.249 252.643 226.379 251.908Z" fill="#886748"/>
<path fill-rule="evenodd" clip-rule="evenodd" d="M216.018 246.214C216.104 247.948 216.017 249.671 215.759 251.39C214.913 254.097 213.964 256.773 212.91 259.413C213.082 259.672 213.255 259.931 213.428 260.19C214.734 258.968 216.115 257.85 217.572 256.825C220.073 256.142 222.318 255.018 224.307 253.46C223.756 254.356 223.756 255.22 224.307 256.049C219.694 256.887 215.723 258.958 212.392 262.26C212.147 261.53 211.629 261.189 210.838 261.225C211.807 258.424 212.93 255.66 214.205 252.943C214.577 251.053 214.836 249.159 214.982 247.249C214.313 247.373 213.795 247.197 213.428 246.731C214.317 246.664 215.18 246.493 216.018 246.214Z" fill="#696663"/>
<path fill-rule="evenodd" clip-rule="evenodd" d="M117.593 221.885C118.462 221.776 118.98 222.118 119.147 222.92C115.514 227.253 113.615 232.253 113.448 237.932C112.868 238.874 112.609 239.909 112.671 241.037C113.264 240.447 113.869 239.93 114.484 239.484C115.287 238.998 116.15 238.651 117.075 238.449C118.384 238.185 119.679 237.838 120.96 237.414C121.673 237.507 122.104 237.854 122.255 238.449C119.791 239.241 117.373 240.188 115.002 241.296C113.181 243.03 111.454 244.842 109.822 246.731C117.165 250.743 123.727 255.743 129.507 261.743C129.476 262.824 128.958 263.601 127.953 264.072C128.705 263.937 129.395 264.02 130.025 264.331C128.644 265.195 128.644 266.054 130.025 266.919C129.598 267.379 129.08 267.55 128.471 267.436C127.074 264.74 125.175 262.41 122.773 260.448C119.471 257.322 116.018 254.387 112.412 251.649C109.309 249.697 106.028 248.144 102.57 246.99C98.6259 246.338 94.6542 246.079 90.655 246.214C94.2672 245.924 97.8934 245.406 101.534 244.661C103.729 245.499 105.801 245.329 107.75 244.143C110.036 242.031 111.418 239.443 111.894 236.379C112.886 234.733 113.231 232.833 112.93 230.685C113.545 227.212 115.099 224.277 117.593 221.885Z" fill="#4F4D4B"/>
<path fill-rule="evenodd" clip-rule="evenodd" d="M113.448 237.932C113.337 238.801 113.682 239.319 114.484 239.485C113.869 239.93 113.264 240.447 112.671 241.037C112.609 239.909 112.868 238.874 113.448 237.932Z" fill="#BFC0BC"/>
<path fill-rule="evenodd" clip-rule="evenodd" d="M189.081 266.919C187.446 267.173 185.892 267.519 184.418 267.954C183.922 267.721 183.49 267.374 183.123 266.919C181.447 262.214 183.088 260.055 188.044 260.449C190.323 262.374 190.669 264.533 189.081 266.919Z" fill="#816449"/>
<path fill-rule="evenodd" clip-rule="evenodd" d="M129.507 261.743C136.419 267.695 143.844 272.96 151.782 277.53C155.868 279.456 160.185 280.667 164.733 281.154C172.065 281.64 179.318 281.211 186.49 279.86C187.594 280.279 188.803 280.538 190.117 280.636C189.372 280.75 188.681 281.009 188.044 281.413C188.281 281.827 188.627 281.997 189.081 281.93C187.746 282.443 186.365 282.96 184.936 283.483C184.254 283.317 183.563 283.147 182.864 282.965C181.122 283.659 179.394 284.177 177.684 284.518C172.427 285.797 167.075 285.885 161.625 284.777C151.381 280.869 141.884 275.605 133.133 268.989C134.191 272.318 135.745 275.594 137.796 278.824C137.579 279.197 137.234 279.456 136.76 279.601C137.136 280.326 137.395 281.102 137.537 281.93C138.088 280.947 138.52 280.864 138.832 281.671C138.43 282.846 138.258 283.97 138.314 285.036C137.415 284.14 136.724 283.105 136.242 281.93C135.828 282.748 135.569 283.607 135.465 284.518C135.373 282.52 135.114 280.626 134.688 278.824C133.429 274.585 131.357 270.786 128.471 267.437C129.08 267.55 129.598 267.38 130.025 266.919C128.644 266.055 128.644 265.195 130.025 264.331C129.395 264.02 128.705 263.937 127.953 264.072C128.958 263.601 129.476 262.825 129.507 261.743Z" fill="#5C5A56"/>
<path fill-rule="evenodd" clip-rule="evenodd" d="M200.477 260.19C201.215 261.23 201.56 262.441 201.513 263.813C201.676 265.816 201.504 267.716 200.995 269.507C200.616 266.738 200.271 263.891 199.959 260.966C199.995 260.573 200.168 260.314 200.477 260.19Z" fill="#4F4D4A"/>
<path fill-rule="evenodd" clip-rule="evenodd" d="M189.081 266.919C188.923 267.255 188.751 267.602 188.563 267.954C190.196 269.916 191.232 272.163 191.671 274.683C190.927 275.413 190.409 276.278 190.117 277.272C190.282 272.747 188.382 269.642 184.418 267.954C185.892 267.519 187.446 267.173 189.081 266.919Z" fill="#66625E"/>
<path fill-rule="evenodd" clip-rule="evenodd" d="M276.109 278.824C275.702 277.996 275.011 277.649 274.037 277.789C274.635 269.6 278.952 266.318 286.988 267.954C286.741 269.817 286.137 271.541 285.175 273.13C283.349 276.935 280.327 278.829 276.109 278.824Z" fill="#7E816C"/>
<path fill-rule="evenodd" clip-rule="evenodd" d="M280.254 268.472C281.019 268.337 281.71 268.508 282.326 268.989C281.349 269.352 281.177 269.869 281.808 270.542C280.983 273.094 279.256 274.129 276.627 273.648C277.006 271.365 278.214 269.642 280.254 268.472Z" fill="#9AA081"/>
<path fill-rule="evenodd" clip-rule="evenodd" d="M201.513 257.602C201.859 257.602 202.204 257.602 202.549 257.602C202.155 258.062 201.637 258.409 200.995 258.637C200.536 259.061 200.364 259.579 200.477 260.19C200.168 260.314 199.995 260.573 199.959 260.966C200.271 263.891 200.617 266.738 200.995 269.507C200.671 270.962 199.98 272.256 198.923 273.389C200.32 273.467 201.356 272.861 202.031 271.578C205.729 268.746 208.665 265.299 210.838 261.225C211.629 261.189 212.147 261.53 212.392 262.26C209.267 267.028 205.64 271.427 201.513 275.46C199.837 276.386 198.11 277.163 196.333 277.789C194.559 277.722 194.386 278.063 195.815 278.824C194.963 278.933 194.186 278.762 193.484 278.307C192.655 279.104 191.705 279.363 190.635 279.083C191.216 278.545 191.907 278.198 192.707 278.048C192.317 277.701 192.144 277.271 192.189 276.754C192.508 276.811 192.767 276.982 192.966 277.271C195.752 275.351 197.997 272.934 199.7 270.025C200.016 266.562 199.93 263.109 199.441 259.672C199.909 259.305 200.082 258.787 199.959 258.119C200.534 258.088 201.052 257.917 201.513 257.602Z" fill="#5B5956"/>
<path fill-rule="evenodd" clip-rule="evenodd" d="M191.671 274.683C192.154 275.237 192.328 275.926 192.189 276.754C192.144 277.271 192.317 277.701 192.707 278.048C191.907 278.198 191.216 278.545 190.635 279.083C191.705 279.363 192.655 279.104 193.484 278.307C194.186 278.762 194.963 278.933 195.815 278.824C196.678 278.824 197.541 278.824 198.405 278.824C199.378 279.259 200.414 279.43 201.513 279.342C201.493 279.901 201.32 280.419 200.995 280.895C201.267 281.252 201.613 281.511 202.031 281.671C201.009 281.93 199.973 282.013 198.923 281.93C195.642 281.93 192.361 281.93 189.081 281.93C188.627 281.997 188.281 281.827 188.044 281.413C188.681 281.009 189.372 280.75 190.117 280.636C188.803 280.538 187.594 280.279 186.49 279.86C187.955 279.383 189.163 278.519 190.117 277.271C190.409 276.278 190.927 275.413 191.671 274.683Z" fill="#4C4B48"/>
<path fill-rule="evenodd" clip-rule="evenodd" d="M274.037 277.789C275.011 277.649 275.702 277.996 276.109 278.824C273.329 280.393 270.393 281.77 267.303 282.965C269.835 284.725 272.425 286.361 275.073 287.883C278.407 288.421 281.688 288.851 284.916 289.177C282.32 289.089 279.73 289.177 277.145 289.436C276.756 289.783 276.583 290.212 276.627 290.73C274.378 289.684 272.133 288.649 269.893 287.624C269.548 287.712 269.203 287.795 268.857 287.883C269.417 288.571 269.763 289.348 269.893 290.212C269.375 290.212 268.857 290.212 268.339 290.212C267.491 287.376 265.764 285.222 263.159 283.742C259.539 282.795 255.913 281.759 252.28 280.636C248.999 280.289 245.718 280.289 242.438 280.636C237.752 282.054 233.09 283.519 228.451 285.036C228.389 284.472 228.043 284.13 227.415 284.001C227.069 284.171 226.724 284.347 226.379 284.518C226.806 284.979 227.324 285.15 227.933 285.036C219.577 287.024 211.461 286.247 203.585 282.707C201.93 282.613 200.376 282.355 198.923 281.93C199.973 282.013 201.009 281.93 202.031 281.671C201.613 281.511 201.267 281.252 200.995 280.895C201.32 280.419 201.493 279.901 201.513 279.342C202.393 279.259 203.257 279.347 204.103 279.601C207.106 281.04 210.214 282.246 213.428 283.224C216.709 283.571 219.99 283.571 223.27 283.224C229.924 281.086 236.658 279.187 243.474 277.53C249.969 276.93 256.185 277.965 262.123 280.636C266.693 281.723 270.665 280.776 274.037 277.789Z" fill="#5E5B57"/>
<path fill-rule="evenodd" clip-rule="evenodd" d="M140.386 282.448C142.659 284.373 145.077 286.097 147.638 287.624C147.976 288.302 148.322 288.991 148.674 289.695C148.438 290.109 148.092 290.28 147.638 290.212C146.247 288.307 144.521 286.755 142.458 285.554C141.054 285.191 140.017 284.327 139.35 282.965C139.586 282.551 139.932 282.381 140.386 282.448Z" fill="#5B5952"/>
<path fill-rule="evenodd" clip-rule="evenodd" d="M228.451 285.036C228.278 285.036 228.105 285.036 227.933 285.036C227.324 285.15 226.806 284.979 226.379 284.518C226.724 284.347 227.069 284.171 227.415 284C228.043 284.13 228.389 284.472 228.451 285.036Z" fill="#3A3734"/>
<path fill-rule="evenodd" clip-rule="evenodd" d="M134.688 278.824C135.114 280.626 135.373 282.52 135.465 284.518C135.569 283.607 135.828 282.748 136.242 281.93C136.724 283.105 137.415 284.14 138.314 285.036C138.258 283.969 138.43 282.846 138.832 281.671C138.52 280.864 138.088 280.946 137.537 281.93C137.395 281.102 137.136 280.325 136.76 279.601C137.234 279.456 137.579 279.197 137.796 278.824C138.843 279.875 139.707 281.081 140.386 282.448C139.932 282.38 139.586 282.551 139.35 282.965C140.017 284.327 141.054 285.191 142.458 285.553C142.795 286.558 142.967 287.593 142.976 288.659C143.053 289.203 142.967 289.72 142.717 290.212C142.614 289.229 142.182 288.452 141.422 287.883C141.659 287.67 141.832 287.412 141.94 287.106C141.422 286.418 140.904 286.418 140.386 287.106C140.943 288.628 141.029 290.181 140.645 291.765C140.512 289.757 139.994 287.862 139.091 286.071C137.309 284.477 136.187 284.906 135.724 287.365C135.828 288.457 136.173 289.405 136.76 290.212C136.882 290.88 136.71 291.397 136.242 291.765C134.888 287.629 134.37 283.312 134.688 278.824Z" fill="#696A5C"/>
<path fill-rule="evenodd" clip-rule="evenodd" d="M284.916 289.177C284.116 289.767 283.252 290.285 282.326 290.73C282.153 290.73 281.98 290.73 281.808 290.73C280.134 290.067 278.407 290.067 276.627 290.73C276.583 290.212 276.756 289.783 277.145 289.436C279.73 289.177 282.32 289.089 284.916 289.177Z" fill="#4A4844"/>
<path fill-rule="evenodd" clip-rule="evenodd" d="M284.916 289.177C288.058 289.053 291.166 289.312 294.24 289.953C296.752 291.294 299.342 292.5 302.011 293.577C306.222 297.883 311.23 300.73 317.034 302.118C317.608 302.527 318.299 302.785 319.106 302.894C318.615 303.143 318.097 303.231 317.552 303.153C314.873 303.065 312.37 302.376 310.04 301.082C310.015 302.589 310.447 303.971 311.335 305.223C310.817 305.223 310.299 305.223 309.781 305.223C308.058 301.512 305.468 298.494 302.011 296.165C295.862 292.588 289.3 290.776 282.326 290.73C283.252 290.285 284.116 289.767 284.916 289.177Z" fill="#63615C"/>
<path fill-rule="evenodd" clip-rule="evenodd" d="M150.228 290.212C152.635 292.309 154.879 294.638 156.963 297.2C156.617 297.547 156.272 297.547 155.927 297.2C154.053 295.238 152.154 293.427 150.228 291.765C149.646 291.17 149.646 290.652 150.228 290.212Z" fill="#515448"/>
<path fill-rule="evenodd" clip-rule="evenodd" d="M281.808 290.73C281.263 290.652 280.745 290.74 280.254 290.989C282.003 293.023 283.557 295.181 284.916 297.459C284.549 297.925 284.031 298.101 283.362 297.977C281.454 295.207 279.209 292.795 276.627 290.73C278.407 290.067 280.134 290.067 281.808 290.73Z" fill="#66665E"/>
<path fill-rule="evenodd" clip-rule="evenodd" d="M142.976 288.659C143.667 290.559 143.667 292.453 142.976 294.353C142.547 293.923 142.115 294.094 141.681 294.871C141.508 295.906 141.335 296.941 141.163 297.976C139.965 295.859 138.67 293.789 137.278 291.765C138.004 290.771 137.832 290.253 136.76 290.212C136.173 289.405 135.828 288.457 135.724 287.365C136.187 284.906 137.309 284.477 139.091 286.071C139.994 287.862 140.512 289.756 140.645 291.765C141.029 290.181 140.943 288.628 140.386 287.106C140.904 286.418 141.422 286.418 141.94 287.106C141.832 287.412 141.659 287.67 141.422 287.883C142.182 288.452 142.614 289.229 142.717 290.212C142.967 289.72 143.053 289.203 142.976 288.659Z" fill="#909479"/>
<path fill-rule="evenodd" clip-rule="evenodd" d="M150.228 290.212C150.406 289.777 150.751 289.607 151.264 289.695C156.234 291.729 159.86 295.176 162.143 300.047C162.143 301.771 162.143 303.5 162.143 305.223C161.971 305.223 161.798 305.223 161.625 305.223C161.71 303.489 161.624 301.766 161.366 300.047C161.468 306.077 160.69 306.248 159.035 300.565C158.066 299.907 157.116 299.907 156.186 300.565C155.645 299.985 155.3 299.291 155.15 298.494C153.8 297.837 152.591 296.972 151.523 295.906C151.069 294.498 150.292 293.292 149.192 292.283C149.429 291.869 149.775 291.698 150.228 291.765C152.154 293.427 154.054 295.238 155.927 297.2C156.272 297.547 156.617 297.547 156.963 297.2C154.879 294.638 152.635 292.309 150.228 290.212Z" fill="#909478"/>
<path fill-rule="evenodd" clip-rule="evenodd" d="M136.76 290.212C137.832 290.254 138.004 290.771 137.278 291.765C138.67 293.789 139.965 295.859 141.163 297.977C141.335 296.941 141.508 295.906 141.681 294.871C142.115 294.094 142.547 293.924 142.976 294.353C142.832 296.501 142.141 298.401 140.904 300.047C139.353 297.293 137.799 294.534 136.242 291.765C136.71 291.398 136.882 290.88 136.76 290.212Z" fill="#808270"/>
<path fill-rule="evenodd" clip-rule="evenodd" d="M268.339 290.212C268.857 290.212 269.375 290.212 269.893 290.212C271.111 293.939 273.097 297.216 275.85 300.047C276.192 301.802 276.105 303.526 275.591 305.223C273.174 305.223 270.757 305.223 268.339 305.223C267.342 301.315 267.86 297.604 269.893 294.094C269.297 292.821 268.779 291.527 268.339 290.212Z" fill="#81876D"/>
<path fill-rule="evenodd" clip-rule="evenodd" d="M147.638 287.624C149.32 287.909 150.874 288.426 152.301 289.177C151.787 289.089 151.442 289.26 151.264 289.695C150.751 289.607 150.406 289.777 150.228 290.212C149.646 290.652 149.646 291.17 150.228 291.765C149.775 291.698 149.429 291.869 149.192 292.283C150.292 293.292 151.069 294.498 151.523 295.906C152.591 296.972 153.8 297.837 155.15 298.494C155.3 299.291 155.645 299.985 156.186 300.565C157.116 299.907 158.066 299.907 159.035 300.565C160.69 306.248 161.468 306.077 161.366 300.047C161.624 301.766 161.71 303.489 161.625 305.223C160.934 305.223 160.243 305.223 159.553 305.223C156.676 302.087 153.654 298.981 150.487 295.906C149.259 294.141 148.309 292.241 147.638 290.212C148.092 290.279 148.438 290.109 148.674 289.695C148.322 288.991 147.977 288.302 147.638 287.624Z" fill="#797C67"/>
<path fill-rule="evenodd" clip-rule="evenodd" d="M289.578 299.53C292.057 300.798 293.784 302.692 294.758 305.223C291.65 305.223 288.542 305.223 285.434 305.223C285.404 304.649 285.232 304.131 284.916 303.671C285.6 302.464 286.377 301.6 287.247 301.082C290.473 304.416 290.732 304.157 288.024 300.306C288.665 300.187 289.183 299.928 289.578 299.53Z" fill="#8F9778"/>
<path fill-rule="evenodd" clip-rule="evenodd" d="M151.264 289.695C151.442 289.26 151.787 289.089 152.3 289.177C155.255 290.657 158.018 292.469 160.589 294.612C164.634 299.1 169.296 302.64 174.576 305.223C171.813 305.223 169.05 305.223 166.287 305.223C165.513 303.065 164.131 301.336 162.143 300.047C159.86 295.176 156.234 291.729 151.264 289.695Z" fill="#585851"/>
<path fill-rule="evenodd" clip-rule="evenodd" d="M284.916 297.459C286.564 298.023 288.118 298.717 289.578 299.529C289.183 299.928 288.665 300.187 288.024 300.306C290.732 304.157 290.473 304.416 287.247 301.082C286.377 301.6 285.6 302.464 284.916 303.671C284.635 301.704 284.117 299.804 283.362 297.977C284.031 298.101 284.549 297.925 284.916 297.459Z" fill="#787E65"/>
<path fill-rule="evenodd" clip-rule="evenodd" d="M333.093 304.188C332.475 303.945 332.129 303.427 332.057 302.635C331.799 301.434 331.627 300.228 331.538 299.012C330.848 299.012 330.157 299.012 329.466 299.012C329.659 300.316 329.228 301.351 328.171 302.118C327.817 301.455 327.903 300.849 328.43 300.306C327.939 300.057 327.421 299.969 326.876 300.047C326.635 301.942 326.98 303.67 327.912 305.223C327.567 305.223 327.222 305.223 326.876 305.223C326.642 304.726 326.297 304.297 325.84 303.929C323.948 303.67 322.049 303.582 320.142 303.67C321.791 302.682 323.691 302.335 325.84 302.635C325.84 301.947 325.84 301.253 325.84 300.565C326.463 298.908 327.671 298.049 329.466 297.977C333.588 298.458 334.797 300.528 333.093 304.188Z" fill="#75604B"/>
<path fill-rule="evenodd" clip-rule="evenodd" d="M333.093 304.188C332.92 304.535 332.747 304.876 332.575 305.223C331.02 305.223 329.466 305.223 327.912 305.223C326.98 303.67 326.635 301.941 326.876 300.047C327.421 299.969 327.939 300.057 328.43 300.306C327.903 300.849 327.817 301.455 328.171 302.117C329.228 301.351 329.659 300.316 329.466 299.012C330.157 299.012 330.848 299.012 331.538 299.012C331.627 300.228 331.799 301.434 332.057 302.635C332.129 303.427 332.475 303.945 333.093 304.188Z" fill="#8C6C48"/>
<path fill-rule="evenodd" clip-rule="evenodd" d="M80.2945 296.424C81.4979 297.785 82.4474 299.338 83.1436 301.082C83.7026 302.407 83.9616 303.79 83.9207 305.223C81.5031 305.223 79.0859 305.223 76.6683 305.223C75.3266 303.194 74.0315 301.124 72.7831 299.012C71.6962 296.739 71.0922 294.322 70.97 291.765C71.5123 290.911 72.1169 290.046 72.7831 289.177C73.1286 289.524 73.4736 289.865 73.8191 290.212C76.0586 288.607 76.4906 288.866 75.1142 290.989C76.0612 291.77 76.2342 292.629 75.6322 293.577C76.7367 294.053 77.0822 294.741 76.6683 295.647C77.7453 295.725 78.7813 296.16 79.7765 296.941C80.0909 296.879 80.2634 296.703 80.2945 296.424Z" fill="#5C5B56"/>
</svg>
